<?xml version="1.0" standalone="no"?>
<!DOCTYPE svg PUBLIC "-//W3C//DTD SVG 20010904//EN"
 "http://www.w3.org/TR/2001/REC-SVG-20010904/DTD/svg10.dtd">
<svg version="1.0" xmlns="http://www.w3.org/2000/svg"
 width="305.000000pt" height="305.000000pt" viewBox="0 0 305.000000 305.000000"
 preserveAspectRatio="xMidYMid meet">
<metadata>
Created by potrace 1.14, written by Peter Selinger 2001-2017
</metadata>
<g transform="translate(0.000000,305.000000) scale(0.100000,-0.100000)"
fill="#000000" stroke="none">
<path d="M1340 2978 c0 -6 -3 -8 -7 -5 -11 12 -31 -13 -26 -33 3 -12 0 -20 -6
-20 -7 0 -9 5 -6 10 3 6 -1 10 -10 10 -9 0 -13 -4 -10 -10 11 -18 -14 -11 -25
8 -10 15 -11 15 -5 -3 16 -47 16 -50 5 -33 -10 16 -14 16 -33 4 -12 -8 -29
-13 -37 -11 -10 2 -17 -5 -18 -19 -1 -16 1 -18 8 -6 5 8 10 10 10 4 0 -6 -10
-19 -22 -30 -15 -13 -18 -13 -10 -3 10 14 9 17 -7 22 -14 3 -18 1 -14 -9 3 -8
-1 -14 -11 -14 -9 0 -21 -10 -26 -22 -5 -13 -9 -17 -9 -10 -1 9 -8 11 -22 7
-16 -5 -19 -4 -14 5 5 8 4 11 -3 7 -12 -8 -4 -47 11 -47 6 0 8 -2 5 -5 -9 -10
-38 7 -31 18 3 6 1 7 -5 3 -7 -4 -12 -16 -12 -26 0 -10 -5 -22 -12 -26 -7 -4
-8 -3 -4 4 4 7 2 20 -4 29 -11 17 -11 17 -6 1 3 -12 0 -18 -10 -18 -8 0 -13 4
-10 8 3 5 -2 9 -11 9 -12 0 -11 -5 7 -19 16 -13 18 -18 7 -18 -8 0 -18 -6 -21
-12 -3 -8 -5 -8 -3 2 1 8 -3 15 -8 15 -5 0 -8 -7 -7 -16 4 -21 -41 -42 -57
-26 -8 8 -11 7 -11 -6 0 -10 -8 -17 -20 -17 -17 0 -24 -9 -22 -31 1 -3 -6 -6
-14 -6 -17 0 -19 13 -1 20 6 3 8 6 2 6 -5 0 -16 -3 -24 -8 -12 -8 -12 -12 -2
-24 10 -13 9 -15 -9 -10 -16 4 -19 2 -14 -13 6 -17 5 -17 -9 1 -16 20 -22 12
-18 -22 1 -6 -7 -11 -18 -10 -11 0 -17 5 -15 9 3 5 9 6 14 3 11 -7 7 22 -5 32
-4 4 -5 3 -1 -4 8 -14 -27 -36 -40 -25 -5 4 -2 -1 5 -10 7 -10 12 -18 10 -19
-33 -6 -38 -6 -33 3 4 7 2 8 -4 4 -7 -4 -12 -2 -12 5 0 7 -3 10 -6 7 -3 -4 0
-16 6 -28 7 -12 8 -20 2 -17 -5 4 -18 0 -28 -8 -22 -17 -48 -20 -39 -5 4 6 11
7 17 4 7 -4 8 -2 4 5 -10 16 -39 -7 -32 -25 3 -8 0 -13 -7 -11 -7 1 -11 -4 -9
-11 1 -8 -2 -11 -8 -7 -6 3 -7 11 -4 17 5 7 2 8 -5 4 -7 -5 -10 -14 -7 -22 3
-8 2 -13 -2 -12 -11 2 -45 -14 -66 -31 -11 -9 -16 -11 -13 -5 4 7 0 17 -7 23
-12 10 -14 9 -10 -6 3 -11 -3 -27 -15 -37 -12 -11 -21 -15 -21 -11 0 5 -7 0
-16 -11 -14 -18 -15 -18 -10 6 3 14 3 19 0 12 -5 -10 -9 -10 -22 0 -13 11 -14
11 -7 -2 5 -8 10 -24 12 -35 1 -11 -1 -14 -3 -7 -3 6 -10 10 -15 7 -5 -4 -6 2
-3 12 4 14 3 14 -6 -2 -7 -11 -20 -26 -28 -32 -20 -17 -40 -17 -24 -1 7 7 12
17 12 22 0 6 -7 0 -16 -12 -8 -12 -20 -20 -25 -17 -15 10 -10 -2 9 -21 16 -17
16 -17 0 -11 -12 4 -23 -1 -33 -16 -8 -12 -15 -16 -15 -10 0 13 -46 11 -58 -2
-4 -4 -2 -6 3 -3 6 3 19 -4 29 -15 19 -20 19 -20 0 -13 -32 13 -55 15 -49 5 4
-5 9 -7 13 -5 4 2 13 -3 21 -11 12 -13 11 -14 -7 -8 -17 5 -21 3 -16 -9 4 -9
1 -16 -6 -16 -7 0 -2 -9 11 -19 20 -16 22 -22 11 -33 -11 -11 -12 -10 -7 7 6
18 5 18 -7 4 -7 -9 -20 -14 -28 -11 -16 5 -15 4 14 -18 15 -11 18 -12 12 -2
-7 11 -4 12 13 3 23 -13 29 -23 7 -15 -9 3 -13 -3 -13 -18 -1 -43 -3 -47 -21
-42 -14 5 -14 4 -2 -4 8 -7 19 -7 25 -2 7 6 11 3 11 -9 0 -13 -7 -17 -24 -15
-20 2 -21 0 -10 -14 20 -27 22 -28 15 -9 -4 11 -3 16 4 12 5 -4 7 -16 3 -27
-4 -15 -3 -18 6 -13 9 6 11 4 5 -4 -5 -9 -10 -10 -18 -2 -6 6 -16 11 -22 11
-5 0 4 -9 20 -20 17 -11 24 -20 17 -20 -10 0 -10 -5 -2 -21 7 -11 9 -23 6 -27
-3 -3 -6 0 -6 7 0 7 -4 10 -9 7 -5 -4 -8 4 -7 17 2 14 -2 24 -10 24 -9 0 -10
-5 -4 -17 6 -11 5 -22 -3 -30 -7 -8 -8 -10 -1 -7 6 4 19 -2 29 -13 15 -16 15
-22 5 -35 -10 -12 -10 -15 0 -15 8 0 11 -3 7 -6 -3 -3 -11 -3 -17 1 -8 5 -8
11 1 21 6 8 9 17 6 20 -3 3 -10 -3 -16 -15 -9 -15 -8 -23 3 -33 11 -11 11 -15
-3 -26 -14 -12 -14 -13 0 -9 9 3 16 0 16 -6 0 -7 4 -19 7 -28 5 -10 1 -19 -9
-23 -9 -3 -14 -2 -11 3 3 5 0 11 -8 14 -10 4 -12 0 -9 -14 3 -11 15 -19 27
-20 19 -1 19 -2 -4 -9 -14 -4 -19 -8 -11 -9 11 -1 11 -4 1 -16 -11 -13 -11
-18 0 -28 7 -7 10 -7 7 -2 -3 6 1 19 9 30 8 10 14 14 14 8 0 -7 -5 -15 -11
-19 -8 -4 -7 -9 2 -15 10 -6 10 -9 2 -9 -7 0 -10 -9 -8 -20 6 -31 -4 -49 -23
-43 -14 4 -15 3 -2 -5 8 -7 19 -7 25 -2 7 6 11 3 11 -9 0 -13 -7 -17 -24 -15
-20 2 -21 0 -10 -14 20 -27 22 -28 14 -7 -5 14 -4 17 4 9 15 -15 2 -44 -18
-37 -14 4 -15 3 -2 -5 8 -7 19 -7 25 -2 7 6 11 3 11 -9 0 -13 -7 -17 -23 -15
-19 2 -21 -1 -13 -15 6 -12 5 -22 -3 -31 -7 -8 -8 -10 -1 -7 6 4 19 -2 29 -13
15 -16 15 -22 5 -35 -10 -12 -10 -15 0 -15 8 0 11 -3 7 -6 -3 -3 -11 -3 -17 1
-8 5 -8 11 1 21 6 8 9 17 6 20 -3 3 -10 -3 -16 -15 -9 -15 -8 -23 3 -33 11
-11 11 -15 -3 -26 -15 -13 -15 -13 1 -9 11 4 15 1 13 -11 -2 -9 -4 -21 -4 -26
-1 -4 -8 -5 -17 -2 -10 4 -13 2 -7 -7 4 -6 8 -19 10 -27 1 -8 7 -16 12 -18 7
-2 6 -8 -2 -17 -7 -7 -15 -11 -19 -9 -4 2 -10 -1 -14 -8 -4 -7 -4 -10 1 -6 4
4 15 2 23 -5 11 -8 14 -8 9 0 -4 6 -4 14 1 17 7 4 8 -44 3 -86 -1 -4 -9 -5
-18 -2 -15 5 -15 4 -3 -4 8 -7 19 -7 25 -2 7 6 11 3 11 -9 0 -13 -7 -17 -24
-15 -20 2 -21 0 -10 -14 20 -27 22 -28 15 -9 -4 11 -3 16 4 12 5 -4 7 -16 3
-27 -4 -15 -3 -18 6 -13 9 6 11 4 5 -4 -5 -9 -10 -10 -18 -2 -6 6 -16 11 -22
11 -5 0 4 -9 20 -20 17 -11 24 -20 16 -20 -10 0 -11 -3 -2 -14 9 -10 8 -15 -3
-19 -10 -4 -13 1 -12 17 2 13 -3 23 -10 23 -9 0 -10 -5 -4 -17 5 -10 6 -20 2
-24 -3 -4 0 -11 7 -16 8 -4 15 -19 15 -32 1 -12 5 -28 9 -35 4 -6 3 -14 -2
-17 -12 -8 -19 4 -16 25 2 9 -3 16 -11 16 -7 0 -10 -5 -6 -11 11 -19 11 -40 0
-54 -9 -10 -8 -12 3 -10 8 2 13 -3 11 -10 -1 -8 2 -11 8 -7 8 5 7 11 -1 21 -9
11 -8 14 3 14 9 0 15 -9 15 -22 1 -41 3 -48 14 -48 8 0 8 4 0 14 -9 10 -7 17
6 27 16 13 17 12 5 -3 -11 -14 -10 -18 7 -28 12 -6 21 -8 21 -5 0 3 10 -3 22
-14 17 -17 24 -18 36 -8 13 11 14 9 1 -11 -12 -20 -12 -24 1 -32 9 -5 19 -5
26 1 8 6 14 4 18 -6 3 -9 2 -13 -3 -10 -5 3 -13 0 -17 -6 -4 -7 -3 -9 4 -5 6
3 13 2 16 -3 3 -5 22 -8 41 -6 24 1 45 -5 61 -17 21 -17 27 -18 41 -6 14 11
16 11 8 -2 -5 -8 -8 -23 -6 -34 1 -11 -2 -16 -8 -11 -6 3 -8 11 -5 17 4 7 2 8
-4 4 -7 -4 -12 -2 -12 5 0 7 -3 10 -6 6 -4 -3 3 -17 13 -31 l20 -25 14 25 13
25 28 -30 c15 -16 28 -34 28 -38 -1 -4 -9 2 -19 14 -10 12 -22 19 -26 15 -5
-4 -5 -1 -1 6 4 6 2 12 -3 12 -6 0 -11 -7 -11 -15 0 -8 7 -15 16 -15 9 0 12
-5 8 -12 -4 -6 -3 -8 4 -4 6 3 13 2 17 -4 4 -6 11 -8 16 -5 17 11 50 14 44 4
-4 -5 -11 -7 -16 -4 -5 4 -9 0 -9 -7 0 -7 10 -13 23 -14 12 0 31 -4 41 -9 15
-7 18 -5 12 6 -4 8 2 3 13 -10 13 -15 27 -21 37 -17 14 5 15 4 4 -9 -9 -11
-16 -12 -25 -5 -6 5 -16 6 -20 2 -5 -4 -5 1 -2 11 4 11 3 16 -4 12 -14 -9 -6
-30 12 -30 8 -1 13 -6 11 -13 -1 -8 8 -6 25 5 27 17 28 17 13 -1 -14 -18 -14
-19 7 -8 30 16 41 15 18 -1 -14 -11 -15 -16 -5 -22 9 -5 11 -4 6 3 -4 7 -2 12
3 12 6 0 11 -5 11 -10 0 -6 11 -8 25 -6 27 5 43 -8 24 -20 -7 -4 -9 -3 -5 4 7
12 -32 8 -43 -4 -3 -4 2 -4 11 -1 11 4 21 0 27 -11 6 -10 11 -12 11 -4 0 6 8
12 18 12 15 0 15 -2 2 -11 -12 -9 -11 -10 7 -6 13 3 26 1 29 -4 3 -5 9 -7 14
-4 4 3 13 -2 20 -10 7 -8 17 -12 23 -8 6 4 7 1 2 -7 -6 -9 -4 -12 7 -8 9 4 15
0 15 -8 0 -12 -3 -12 -22 0 -18 12 -22 12 -22 1 0 -8 4 -12 8 -9 4 2 14 -2 21
-9 10 -12 15 -11 31 7 10 12 16 16 13 9 -4 -6 -3 -13 1 -16 5 -2 3 -3 -4 -1
-16 4 -9 -29 8 -34 11 -3 12 -2 1 6 -11 7 -9 10 7 15 11 3 25 -1 32 -9 6 -8
15 -11 20 -9 4 3 11 0 16 -7 4 -7 15 -13 23 -13 8 0 14 -6 12 -13 -2 -10 17
-17 41 -13 11 2 9 -17 -3 -24 -5 -3 -10 -2 -10 3 0 5 -9 12 -21 15 -14 4 -18
10 -13 18 5 9 2 10 -9 6 -10 -4 -20 0 -26 11 -10 16 -10 16 -11 0 0 -9 -3 -18
-7 -21 -5 -2 -2 -2 5 0 19 4 54 -16 47 -27 -4 -6 1 -7 11 -3 11 4 15 3 10 -5
-4 -7 1 -9 14 -6 11 2 29 6 40 8 11 3 20 0 20 -5 0 -6 4 -8 9 -5 4 3 7 -10 6
-29 -1 -19 3 -31 7 -28 5 3 7 11 4 19 -3 8 -1 14 4 14 10 0 14 -15 10 -35 -1
-5 2 -7 5 -3 11 11 47 -11 39 -24 -4 -7 -3 -8 4 -4 7 4 12 2 12 -5 0 -7 3 -9
8 -5 4 5 -8 21 -26 36 -24 20 -30 30 -21 35 8 5 10 4 5 -3 -7 -11 6 -17 27
-13 5 1 6 -3 2 -8 -3 -6 4 -15 15 -21 12 -6 19 -18 16 -25 -3 -9 0 -12 9 -9 7
3 12 15 10 26 -3 11 -1 17 3 14 4 -4 8 -12 8 -17 3 -22 5 -23 15 -9 8 13 9 12
7 -4 -2 -10 3 -21 11 -24 9 -3 11 0 6 8 -5 8 2 7 21 -3 25 -12 50 -13 112 -5
6 1 12 5 12 10 0 5 6 6 13 2 6 -4 9 -4 5 1 -4 4 -2 15 5 23 8 11 8 14 0 9 -6
-4 -14 -3 -17 2 -4 5 2 8 11 6 10 -1 17 -10 17 -19 -1 -8 2 -13 7 -10 5 3 6
17 3 32 -4 20 -3 23 5 12 5 -8 13 -11 17 -7 4 4 12 3 19 -1 6 -4 3 0 -7 10
-27 24 -22 31 9 11 19 -13 25 -14 18 -4 -6 11 -4 13 11 8 18 -7 18 -6 1 7 -16
12 -16 14 -2 20 9 3 14 2 11 -3 -3 -5 1 -11 9 -14 9 -4 12 -1 9 7 -3 7 2 16
11 20 9 3 14 10 10 15 -3 5 -1 12 4 15 5 4 12 2 16 -4 9 -14 26 -12 23 3 -3
13 3 17 28 17 8 0 12 -5 9 -10 -4 -6 -11 -8 -16 -5 -5 4 -9 1 -9 -4 0 -15 15
-14 29 2 7 10 7 17 0 24 -8 8 -7 13 2 18 7 5 10 4 6 -2 -4 -6 2 -13 13 -16 11
-3 17 -1 14 4 -3 6 0 16 6 24 6 8 9 19 5 25 -3 5 -4 10 -1 10 3 0 10 -10 17
-21 7 -13 7 -19 1 -15 -6 3 -13 2 -16 -3 -11 -16 11 -22 24 -6 7 8 9 15 5 15
-5 0 -1 8 8 18 10 10 14 22 10 25 -3 4 -1 7 6 7 8 0 11 -6 7 -15 -15 -36 -16
-48 -4 -27 10 16 17 19 25 11 8 -8 13 -7 18 2 5 7 4 10 -2 6 -6 -4 -13 0 -16
7 -4 9 7 22 29 35 19 11 37 20 41 20 3 0 10 5 15 13 8 10 9 10 5 -2 -2 -8 -10
-14 -16 -12 -7 1 -9 -2 -5 -9 5 -8 3 -9 -6 -4 -9 6 -11 4 -5 -5 5 -9 4 -11 -3
-6 -7 4 -12 2 -12 -3 0 -17 15 -13 35 9 10 11 22 17 28 13 6 -3 7 -1 3 5 -4 7
-2 12 3 12 6 0 11 7 11 15 0 8 5 15 11 15 5 0 8 -4 5 -8 -2 -4 0 -14 6 -22 8
-12 9 -11 4 4 -4 13 -2 17 7 13 8 -3 20 -1 28 4 11 8 10 9 -5 7 -10 -2 -21 2
-23 8 -2 5 8 11 22 12 52 4 55 5 45 17 -12 15 -3 25 15 18 8 -2 11 -11 8 -19
-3 -8 -1 -14 4 -14 5 0 10 11 11 26 1 17 -2 23 -11 18 -7 -4 -9 -3 -4 2 9 9
13 10 45 13 13 1 14 3 4 10 -11 6 -10 10 5 16 10 4 24 9 32 11 8 1 18 9 23 16
8 10 9 9 5 -4 -6 -18 29 -33 40 -16 3 6 1 8 -4 5 -6 -4 -14 0 -17 9 -4 12 -2
15 9 10 9 -3 15 0 15 10 0 8 4 13 10 9 5 -3 6 -13 3 -22 -6 -15 -5 -16 9 -3 9
8 12 17 7 18 -13 5 -11 32 2 32 5 0 7 -5 3 -11 -4 -7 -1 -10 7 -7 8 3 13 10
12 16 -2 6 4 9 12 6 8 -4 15 -11 15 -17 0 -6 7 -1 16 11 8 12 20 19 26 16 7
-5 8 -2 3 6 -6 10 -4 12 8 7 11 -4 20 1 27 14 6 11 15 17 20 14 5 -3 12 0 15
6 4 5 13 8 21 5 8 -3 13 0 11 7 -1 7 4 11 11 9 8 -1 11 2 7 8 -5 8 -12 7 -23
-2 -10 -8 -13 -8 -9 -1 4 6 4 13 0 16 -5 2 -2 2 4 1 7 -2 20 7 29 19 11 15 15
17 11 5 -4 -10 -2 -18 4 -18 6 0 7 -5 3 -12 -4 -7 -3 -8 4 -4 6 4 9 13 5 21
-4 11 -1 13 11 9 10 -4 18 0 22 10 3 9 10 16 16 16 5 0 6 -5 2 -12 -5 -7 -3
-8 5 -4 7 5 10 14 7 21 -3 10 2 12 20 9 13 -2 24 0 24 6 0 6 -5 8 -11 4 -7 -4
-10 -1 -7 7 3 8 10 13 16 12 7 -2 9 4 5 14 -4 10 -2 14 4 10 7 -4 10 0 8 10
-2 10 -4 23 -4 30 -1 7 -7 11 -13 9 -7 -1 -10 -1 -5 1 4 3 7 9 7 14 0 6 -6 7
-12 3 -10 -6 -10 -5 -1 7 10 12 10 18 0 28 -10 11 -8 11 11 2 12 -6 22 -16 22
-22 0 -6 -5 -7 -12 -3 -7 5 -8 3 -3 -5 5 -9 11 -9 17 -3 6 6 7 16 2 24 -5 7
-9 28 -9 47 -1 20 -9 40 -21 49 -15 12 -16 14 -2 9 10 -3 20 -1 24 5 5 7 2 8
-6 3 -10 -6 -11 -4 -5 11 17 42 9 87 -19 106 -7 5 -6 8 4 8 13 0 13 1 0 11
-12 8 -11 9 5 5 16 -5 21 -1 22 14 1 11 -3 20 -8 20 -6 0 -7 -4 -4 -10 4 -6
-1 -7 -11 -3 -11 4 -13 8 -6 11 15 5 16 38 2 47 -6 4 -8 11 -4 16 3 5 10 7 15
4 5 -4 9 -1 9 4 0 16 24 9 32 -9 6 -11 7 -10 5 5 -2 15 -10 20 -35 21 -33 1
-57 13 -31 15 8 1 21 2 29 3 8 0 15 6 15 13 0 6 3 15 7 19 4 3 6 -3 3 -15 -4
-22 26 -46 48 -37 7 2 5 5 -5 5 -9 1 -19 5 -23 10 -3 6 6 8 20 5 18 -3 25 0
25 11 0 9 4 14 8 11 5 -3 9 1 9 9 0 8 -4 12 -8 9 -12 -7 -16 29 -6 58 5 16 13
25 18 22 5 -3 9 -1 9 4 0 6 -7 13 -16 16 -8 3 -12 2 -9 -3 3 -5 2 -12 -3 -15
-4 -2 -9 4 -9 15 -1 11 5 19 15 20 11 1 8 4 -8 9 -24 8 -24 8 -2 9 12 1 22 6
22 12 0 5 -4 7 -10 4 -5 -3 -10 -1 -10 4 0 6 4 11 10 11 5 0 -7 16 -28 36 -20
20 -32 33 -25 30 6 -3 18 1 26 9 9 8 19 15 24 15 4 -1 -2 -9 -14 -19 -20 -16
-21 -21 -8 -31 12 -10 15 -9 15 8 0 12 6 20 13 18 6 -1 9 -1 4 1 -4 3 -5 9 -1
14 3 5 -1 12 -10 15 -8 3 -12 13 -10 22 5 15 4 15 -6 0 -6 -10 -16 -18 -22
-18 -6 0 -5 7 3 18 11 14 11 15 -1 5 -18 -16 -34 -17 -24 -1 4 7 3 8 -5 4 -6
-4 -9 -12 -6 -17 4 -5 2 -9 -4 -9 -5 0 -12 6 -15 13 -3 6 -3 -1 -1 -18 3 -16
2 -24 -1 -17 -8 18 -25 15 -22 -4 3 -17 -14 -24 -59 -27 -17 -1 -20 -4 -11
-14 8 -10 7 -12 -5 -7 -9 3 -18 13 -20 22 -3 10 -4 3 -3 -15 0 -18 -3 -32 -9
-32 -5 0 -9 11 -9 25 1 13 -3 24 -8 24 -5 0 -7 -9 -3 -20 4 -14 2 -18 -7 -15
-8 3 -22 -1 -33 -10 -20 -15 -20 -15 0 -8 18 6 19 5 5 -13 -14 -18 -14 -18 2
-5 10 7 15 17 12 22 -3 5 -1 9 3 9 5 0 14 -9 20 -19 11 -17 10 -19 -6 -16 -19
3 -60 -31 -60 -50 1 -17 -18 -17 -25 0 -4 11 -2 14 6 9 7 -5 8 -3 3 6 -6 9 -4
11 5 5 9 -6 11 -4 5 5 -6 9 -4 11 5 5 9 -6 11 -4 5 5 -6 9 -4 11 5 5 9 -5 11
-4 6 3 -11 18 -56 -19 -50 -40 4 -13 -1 -16 -22 -15 -15 1 -29 9 -31 17 -3 10
-2 11 4 4 9 -13 45 -15 37 -2 -3 5 -10 5 -16 2 -7 -5 -9 -2 -6 7 6 16 -37 19
-63 4 -11 -6 -12 -5 -1 6 18 19 15 28 -8 24 -15 -3 -20 1 -18 12 2 9 -2 18 -9
20 -8 3 -11 -3 -8 -17 3 -18 2 -20 -10 -10 -8 7 -12 16 -9 21 3 5 -2 9 -11 9
-9 0 -13 -4 -10 -10 3 -5 1 -10 -5 -10 -7 0 -9 7 -6 15 3 10 -1 18 -12 22 -9
4 -20 11 -24 17 -5 7 -8 7 -8 -2 0 -7 7 -15 15 -18 8 -4 15 -10 15 -15 0 -4
-13 0 -30 9 -16 9 -30 22 -30 28 0 13 -25 26 -33 17 -3 -3 -3 -12 0 -20 5 -12
7 -12 14 -1 5 8 8 5 6 -11 -1 -23 -2 -23 -24 6 -13 15 -23 34 -23 41 0 8 -8
12 -17 10 -10 -2 -17 -11 -17 -19 1 -9 -5 -16 -13 -16 -8 0 -12 6 -9 13 3 7
-2 18 -10 24 -11 10 -14 9 -14 -4 0 -9 -5 -16 -10 -16 -7 0 -7 6 -1 18 10 18
11 66 2 57 -2 -3 -14 3 -25 12 -20 17 -20 17 -7 1 9 -12 10 -18 2 -18 -6 0
-11 -4 -11 -9 0 -6 9 -8 20 -6 11 2 20 -1 20 -7 0 -5 -6 -8 -14 -5 -7 3 -18 1
-24 -5 -7 -7 -10 -3 -8 16 3 27 -16 37 -30 15 -4 -8 -9 -7 -15 2 -9 15 -3 29
14 29 7 0 6 -4 -3 -10 -8 -5 -10 -10 -5 -10 6 0 16 4 23 9 23 14 -16 23 -41
10 -22 -12 -22 -11 -4 9 14 15 15 22 6 28 -8 4 -10 3 -5 -4 10 -16 -6 -15 -39
2 -17 9 -22 16 -13 19 7 2 -5 3 -27 2 -50 -3 -58 1 -45 26 11 19 4 24 -27 20
-7 -1 -13 5 -13 14 0 10 5 13 12 9 7 -4 8 -3 4 5 -4 6 -12 9 -17 5 -5 -3 -17
0 -26 8 -12 9 -15 9 -9 1 4 -9 1 -13 -10 -13 -15 0 -15 -2 0 -27 l17 -28 -21
24 c-14 16 -17 27 -10 36 7 8 4 11 -12 11 -11 -1 -23 5 -25 12 -3 6 0 12 7 12
6 0 8 -4 5 -10 -3 -6 1 -7 9 -4 27 11 17 23 -15 19 -28 -4 -30 -3 -17 13 12
16 11 16 -6 2 -18 -14 -19 -13 -12 5 6 16 5 17 -5 8 -10 -10 -9 -17 5 -32 14
-15 15 -21 4 -27 -7 -4 -10 -4 -6 0 8 9 -13 36 -23 30 -11 -6 -5 30 6 39 6 5
4 7 -5 4 -8 -2 -14 -9 -13 -15 2 -7 -4 -9 -15 -5 -15 6 -16 5 -2 -13 14 -17
13 -18 -1 -7 -9 7 -20 9 -25 5 -5 -4 1 5 14 19 20 22 21 28 8 38 -12 10 -17 8
-26 -10 -10 -17 -9 -20 1 -14 7 5 10 4 5 -3 -8 -13 -36 -5 -36 10 0 5 4 7 9 3
11 -6 6 34 -5 44 -4 3 -5 -1 -2 -9 2 -8 0 -20 -6 -26 -8 -9 -15 -6 -28 9 -15
16 -20 18 -33 7 -14 -11 -17 -10 -21 7 -4 13 -12 20 -22 18 -10 -2 -21 -4 -25
-4 -5 -1 -6 -5 -2 -10 3 -5 1 -12 -4 -15 -14 -9 -32 19 -25 40 5 17 4 17 -7
-1 -7 -11 -18 -23 -25 -28 -7 -4 -11 -14 -8 -22 4 -8 1 -15 -5 -15 -6 0 -10 3
-10 8 3 19 -2 32 -12 32 -8 0 -7 -5 2 -16 11 -14 10 -15 -7 -12 -10 1 -23 8
-27 13 -5 6 -7 3 -3 -7 5 -18 -30 -52 -45 -42 -4 2 -10 0 -14 -6 -3 -6 1 -13
9 -16 9 -3 16 -11 16 -16 0 -7 -4 -7 -13 0 -14 12 -42 11 -54 -3 -4 -4 -2 -5
5 -1 6 4 12 2 12 -3 0 -6 -9 -11 -21 -11 -11 0 -18 4 -14 9 3 5 1 13 -5 16 -6
4 -10 3 -9 -2 4 -22 -3 -31 -21 -28 -11 2 -20 -2 -20 -8 0 -7 -4 -6 -10 3 -5
8 -10 10 -10 5 0 -6 6 -17 13 -24 10 -10 8 -12 -8 -9 -11 1 -23 7 -26 11 -3 5
-9 1 -12 -8 -4 -9 -3 -13 2 -10 5 3 12 1 16 -5 4 -7 13 -7 26 0 11 6 17 15 14
21 -4 5 -1 9 5 9 7 0 10 -6 7 -14 -4 -9 1 -17 11 -20 13 -4 13 -5 -3 -4 -44 1
-51 -1 -35 -12 9 -6 10 -10 3 -10 -6 0 -15 5 -18 11 -4 6 -13 8 -20 5 -7 -2
-17 0 -23 6 -8 8 -15 8 -26 -1 -8 -7 -21 -9 -28 -5 -10 5 -10 4 -1 -6 10 -11
15 -11 28 0 10 9 19 9 28 2 6 -6 17 -11 22 -12 6 -1 12 -4 15 -7 3 -4 0 -3 -7
1 -6 3 -14 2 -18 -4 -3 -5 -12 -10 -18 -10 -7 0 -6 4 3 10 13 8 13 10 -1 10
-22 0 -31 -11 -19 -25 7 -8 5 -12 -5 -12 -8 0 -12 4 -10 8 3 4 -3 10 -12 13
-9 4 -20 2 -23 -5 -4 -6 -9 -9 -11 -8 -2 2 -15 -4 -29 -14 -20 -14 -23 -21
-14 -35 17 -27 6 -39 -32 -36 -26 2 -33 -1 -25 -10 7 -8 6 -17 -1 -26 -8 -12
-9 -12 -4 2 3 10 1 20 -4 23 -6 4 -10 1 -10 -6 0 -6 -9 -1 -21 12 -11 13 -18
19 -15 13 10 -21 -20 -37 -46 -24 -22 11 -22 10 -4 -4 20 -16 33 -51 15 -40
-5 3 -9 0 -9 -6 0 -7 -5 -6 -14 2 -7 7 -11 20 -8 28 3 8 -4 5 -18 -8 -24 -22
-49 -25 -62 -7 -5 6 -8 5 -8 -3 0 -7 -4 -11 -9 -7 -6 3 -14 -2 -19 -11 -8 -14
-10 -13 -10 9 0 19 5 24 17 20 12 -3 12 -1 -3 11 -10 8 -22 13 -26 11 -4 -2
-7 2 -7 10 0 11 4 12 14 4 19 -16 16 -4 -4 17 -16 16 -16 16 5 10 13 -5 22 -3
22 3 0 6 -7 11 -15 11 -13 0 -14 2 -3 14 7 8 16 12 20 10 4 -2 10 0 13 6 4 6
3 10 -2 9 -29 -5 -38 10 -21 37 4 5 5 19 4 30 -2 10 1 22 6 25 5 3 3 9 -5 12
-12 4 -14 -2 -11 -31 2 -24 0 -32 -5 -23 -5 8 -8 23 -6 33 2 10 -2 18 -8 18
-8 0 -8 3 -2 8 12 9 12 32 0 52 -8 13 -7 13 8 1 21 -17 22 -8 1 13 -8 9 -12
16 -7 16 13 0 30 -14 36 -30 4 -12 6 -12 6 2 1 9 -4 20 -9 23 -8 5 -7 11 1 21
7 9 8 14 1 14 -6 0 -12 -6 -15 -12 -4 -10 -7 -10 -16 -1 -6 7 -8 11 -4 8 3 -3
13 4 20 15 8 11 18 18 22 16 4 -3 8 1 8 9 0 13 -3 13 -17 0 -16 -15 -17 -14
-17 10 0 14 4 25 9 25 6 0 4 8 -3 18 -10 13 -10 14 0 6 13 -12 54 -7 46 6 -2
4 3 16 11 26 15 18 15 18 10 0 -5 -14 -2 -17 10 -12 8 3 18 6 20 6 2 0 4 5 4
11 0 5 -4 7 -10 4 -6 -4 -7 1 -3 11 5 14 8 13 18 -6 10 -19 13 -20 18 -6 4 10
11 15 16 11 5 -3 12 -1 15 4 4 5 1 13 -5 17 -8 5 -9 3 -4 -7 5 -8 5 -11 0 -7
-4 4 -14 3 -21 -3 -9 -7 -12 -6 -10 6 1 8 5 14 8 13 3 -2 13 4 23 12 11 8 16
11 13 5 -3 -5 1 -16 9 -24 13 -12 14 -11 8 8 -5 17 -2 24 13 28 12 3 18 11 16
18 -3 7 -1 15 4 19 5 3 8 -5 7 -16 -1 -12 -10 -25 -21 -29 -12 -5 -14 -8 -4
-8 21 -1 48 22 43 36 -2 6 1 15 8 19 7 4 9 3 6 -3 -4 -6 2 -13 13 -16 17 -4
18 -2 9 15 -6 11 -8 22 -5 26 3 3 6 0 6 -6 0 -6 7 -9 15 -6 13 5 13 9 3 23
-11 13 -9 13 8 -1 17 -15 23 -16 46 -4 19 10 28 11 31 3 2 -6 6 -3 10 7 4 10
3 15 -3 11 -15 -9 -12 9 6 31 8 10 13 13 9 7 -3 -7 -2 -21 4 -30 9 -17 10 -16
10 2 1 41 5 54 13 49 5 -3 6 -15 3 -27 -2 -12 -2 -16 1 -9 3 6 10 10 14 7 5
-3 7 5 5 17 -4 21 -3 22 9 5 12 -16 14 -16 20 -2 3 9 10 14 15 11 5 -3 15 2
22 11 10 12 10 14 2 9 -7 -4 -13 -2 -13 3 0 6 7 11 15 11 8 0 15 -4 15 -10 0
-5 5 -10 11 -10 8 0 7 5 -1 15 -17 20 -9 27 34 28 19 1 32 5 29 11 -4 5 1 7
10 3 9 -3 16 -3 16 1 -3 20 3 23 19 11 9 -7 14 -10 10 -5 -8 10 14 36 24 29 4
-2 5 3 2 11 -4 12 0 14 21 10 22 -4 24 -3 13 10 -7 7 -17 11 -22 8 -5 -3 -6 0
-2 6 5 9 13 9 26 2 29 -15 34 -12 13 8 -10 9 -13 13 -7 9 8 -5 16 -1 22 9 9
16 12 16 27 4 15 -12 16 -12 13 6 -2 11 2 18 10 16 6 -1 12 2 12 8 0 5 -5 10
-12 10 -6 0 -8 3 -5 7 4 3 17 -2 28 -13 l22 -19 -18 35 c-17 34 -17 34 0 20
17 -14 17 -13 8 5 -6 11 -8 26 -5 34 2 8 0 11 -6 7 -6 -4 -6 3 1 18 8 17 15
22 22 15 6 -6 5 -13 -5 -19 -12 -8 -12 -10 -1 -10 10 0 11 -3 2 -14 -9 -11 -9
-16 0 -22 7 -4 9 -3 5 4 -3 6 -2 13 3 16 10 6 8 38 -4 71 -6 16 -2 15 19 -7
24 -25 37 -56 18 -44 -4 2 -8 -4 -9 -14 -2 -18 -1 -18 16 -2 12 12 15 22 9 34
-11 23 7 32 23 11 10 -12 10 -14 2 -9 -7 4 -13 2 -13 -3 0 -6 6 -11 14 -11 8
0 18 -5 21 -11 4 -6 1 -10 -6 -8 -26 3 -39 -1 -39 -12 0 -8 4 -8 14 0 9 8 16
8 20 2 4 -5 -2 -14 -11 -20 -16 -9 -16 -10 3 -8 20 1 22 5 26 46 1 11 6 17 11
14 5 -3 6 -11 4 -17 -3 -7 -1 -19 4 -27 5 -8 9 -9 10 -4 6 41 5 55 -4 55 -6 0
-7 3 -4 7 4 3 16 -2 28 -13 11 -10 26 -19 32 -20 7 0 18 -2 25 -2 6 -1 12 -9
12 -17 0 -8 4 -15 8 -15 13 0 10 30 -2 30 -6 1 0 7 13 14 15 8 20 16 12 20 -6
4 -11 2 -11 -3 0 -6 -4 -11 -9 -11 -18 0 -4 28 27 55 18 15 30 30 27 35 -2 4
6 6 18 6 33 -3 38 3 26 27 -7 12 -8 19 -4 15 5 -4 14 -3 20 2 9 8 21 4 42 -14
28 -24 49 -23 48 1 0 6 -4 15 -9 20 -5 4 -7 3 -3 -2 3 -6 2 -16 -2 -23 -5 -8
-16 -3 -36 18 -23 24 -26 32 -15 45 8 10 9 15 1 15 -6 0 -11 -4 -11 -10 0 -5
-9 -10 -20 -10 -11 0 -20 4 -20 10 0 5 6 8 13 6 6 -1 9 -1 4 1 -4 3 -5 9 -1
14 3 5 2 8 -3 7 -4 -1 -17 3 -28 9 -11 5 -32 10 -46 9 -18 -1 -25 3 -22 11 4
9 0 11 -11 7 -13 -5 -15 -2 -9 12 6 17 5 18 -12 4 -11 -9 -16 -10 -11 -2 8 14
-19 12 -44 -3 -13 -8 -13 -7 -1 8 7 9 16 15 20 13 4 -3 13 -1 20 3 9 6 3 9
-15 9 -16 0 -32 -5 -37 -12 -4 -6 -5 1 -3 16 3 15 0 31 -6 34 -7 4 -8 2 -4 -4
11 -18 -33 -9 -45 9 -8 10 -9 8 -4 -8 8 -27 -3 -30 -21 -5 -13 16 -14 16 -7
-3 6 -18 5 -19 -12 -5 -10 8 -16 10 -12 3 4 -6 4 -13 0 -16 -5 -2 -2 -2 4 -1
7 2 17 -5 22 -14 6 -9 11 -12 11 -6 0 6 11 16 25 22 21 10 27 9 32 -3 3 -9 3
-19 -1 -22 -3 -4 -6 1 -6 10 0 10 -5 14 -14 11 -8 -3 -14 -11 -12 -17 1 -7 1
-8 -2 -4 -2 4 -10 3 -17 -3 -9 -7 -15 -8 -19 -1 -8 12 -36 3 -36 -11 0 -6 6
-5 15 2 10 8 15 9 15 2 0 -6 -8 -15 -17 -21 -16 -9 -16 -10 4 -8 12 0 20 4 18
7 -2 4 2 7 9 7 11 0 11 -4 4 -17 -13 -20 -59 -21 -71 -2 -5 7 -12 10 -18 7 -5
-4 -9 -2 -9 3 0 6 7 13 16 16 8 3 12 10 9 16 -9 14 -18 66 -10 59 3 -4 8 -17
10 -29 2 -12 7 -25 10 -29 14 -13 -5 53 -20 69 -8 9 -12 20 -8 25 5 4 2 5 -5
1 -7 -4 -10 -11 -7 -16 3 -5 1 -11 -5 -15 -10 -6 -14 7 -11 33 1 6 -1 12 -4
12 -3 0 -5 -5 -5 -12z m-12 -21 c-1 -2 4 -12 12 -23 14 -19 14 -19 -7 0 -13
10 -20 23 -17 28 3 5 8 7 11 4 2 -2 3 -6 1 -9z m-111 -82 c4 -4 3 -5 -4 -2 -6
4 -13 2 -15 -5 -3 -8 -6 -6 -10 4 -7 17 15 19 29 3z m388 -33 c-3 -3 -11 0
-18 7 -9 10 -8 11 6 5 10 -3 15 -9 12 -12z m-475 -18 c0 -8 -19 -13 -24 -6 -3
5 1 9 9 9 8 0 15 -2 15 -3z m270 -14 c0 -4 -7 -11 -16 -14 -13 -5 -14 -4 -6 7
7 8 8 18 4 22 -4 5 -1 5 6 1 6 -4 12 -11 12 -16z m320 5 c6 -4 7 -11 4 -17 -5
-7 -12 -4 -21 7 -7 11 -13 13 -13 6 0 -7 -4 -9 -10 -6 -5 3 -10 10 -10 15 0 9
32 6 50 -5z m-250 -13 c23 -10 22 -11 -12 -7 -22 2 -38 -1 -38 -7 0 -5 6 -8
14 -5 8 3 22 0 32 -7 15 -12 14 -13 -13 -11 -16 1 -34 5 -40 8 -21 13 -23 -10
-3 -28 16 -14 18 -21 8 -28 -10 -6 -9 -7 3 -4 9 3 21 1 27 -5 8 -8 10 -1 7 23
-4 32 -3 33 10 15 12 -16 12 -22 2 -28 -6 -4 -8 -8 -4 -8 4 0 3 -9 -3 -20 -7
-14 -7 -20 0 -20 6 0 6 -7 -2 -20 -11 -18 -14 -18 -30 -3 -12 10 -16 24 -12
36 5 17 3 19 -22 14 -16 -4 -23 -4 -16 -1 6 3 9 11 6 16 -4 7 -2 8 4 4 8 -5
12 0 12 13 0 11 -6 19 -12 17 -7 -1 -10 -1 -6 1 4 2 5 10 2 17 -3 8 2 16 10
19 9 4 16 13 16 22 0 16 19 15 60 -3z m-400 -2 c0 -5 -5 -10 -11 -10 -5 0 -7
5 -4 10 3 6 8 10 11 10 2 0 4 -4 4 -10z m375 -61 c14 -22 -3 -18 -26 7 -23 25
-23 26 -2 15 12 -6 25 -16 28 -22z m-45 -64 c-7 -8 -18 -15 -24 -15 -6 0 -2 7
8 15 25 19 32 19 16 0z m240 -25 c-19 -16 -30 -29 -24 -30 6 0 11 -6 11 -14 0
-8 -10 -13 -24 -12 -25 1 -32 16 -7 16 8 0 13 4 10 9 -6 9 48 61 62 61 3 0 -9
-13 -28 -30z m-50 -20 c0 -5 -5 -10 -11 -10 -5 0 -7 5 -4 10 3 6 8 10 11 10 2
0 4 -4 4 -10z m-370 -236 c-7 -8 -15 -12 -18 -10 -3 3 -17 -3 -32 -14 -20 -15
-27 -16 -27 -5 0 8 4 12 9 9 4 -3 19 6 32 19 16 16 27 21 30 14 2 -7 5 -3 6 8
1 12 4 15 7 7 3 -7 -1 -19 -7 -28z m-780 16 c0 -5 -2 -10 -4 -10 -3 0 -8 5
-11 10 -3 6 -1 10 4 10 6 0 11 -4 11 -10z m612 -111 c2 -2 1 -3 -1 -2 -2 2 -9
-2 -16 -7 -8 -7 -12 -5 -12 4 0 12 22 16 29 5z m-132 -74 c0 -12 -19 -12 -23
0 -4 9 -1 12 9 8 7 -3 14 -7 14 -8z m-330 -175 c0 -5 -5 -10 -11 -10 -5 0 -7
5 -4 10 3 6 8 10 11 10 2 0 4 -4 4 -10z m725 -100 c-3 -5 -1 -10 6 -10 7 0 10
-3 6 -6 -9 -9 -28 6 -22 17 4 5 8 9 11 9 3 0 2 -4 -1 -10z m230 -20 c3 -5 1
-10 -4 -10 -6 0 -11 5 -11 10 0 6 2 10 4 10 3 0 8 -4 11 -10z m-265 -24 c0 -1
-6 -3 -12 -4 -38 -3 -79 -22 -48 -22 7 0 11 -2 8 -5 -3 -3 -12 -3 -21 1 -13 5
-12 10 11 29 20 17 31 21 44 14 10 -5 18 -11 18 -13z m47 8 c-3 -3 -12 -4 -19
-1 -8 3 -5 6 6 6 11 1 17 -2 13 -5z m133 -4 c8 -5 11 -10 5 -10 -5 0 -17 5
-25 10 -8 5 -10 10 -5 10 6 0 17 -5 25 -10z m-200 -34 c0 -2 -8 -10 -17 -17
-16 -13 -17 -12 -4 4 13 16 21 21 21 13z m-94 -41 c1 -8 -2 -15 -6 -15 -5 0
-8 9 -7 20 1 21 10 18 13 -5z m364 19 c0 -8 -19 -13 -24 -6 -3 5 1 9 9 9 8 0
15 -2 15 -3z m56 -6 c3 -4 -1 -5 -10 -4 -8 1 -18 5 -22 8 -3 4 1 5 10 4 8 -1
18 -5 22 -8z m-356 -12 c0 -3 -4 -8 -10 -11 -5 -3 -10 -1 -10 4 0 6 5 11 10
11 6 0 10 -2 10 -4z m120 -2 c0 -8 -19 -13 -24 -6 -3 5 1 9 9 9 8 0 15 -2 15
-3z m115 -3 c3 -5 2 -12 -3 -15 -5 -3 -9 1 -9 9 0 17 3 19 12 6z m165 -1 c0
-5 -5 -10 -11 -10 -5 0 -7 5 -4 10 3 6 8 10 11 10 2 0 4 -4 4 -10z m-511 -16
c3 -4 -2 -4 -11 -1 -9 3 -18 1 -21 -6 -2 -6 -6 -4 -10 5 -4 13 -1 16 15 13 11
-3 23 -7 27 -11z m596 -4 c-3 -4 2 -10 10 -14 8 -3 15 -11 15 -18 0 -9 -3 -8
-10 2 -5 8 -10 11 -10 6 0 -6 -6 -1 -14 9 -15 21 -12 40 5 29 5 -3 7 -9 4 -14z
m-61 2 c3 -5 -1 -9 -9 -9 -8 0 -12 4 -9 9 3 4 7 8 9 8 2 0 6 -4 9 -8z m12 -46
c0 -14 -3 -23 -7 -20 -6 3 -6 22 0 42 3 10 7 -2 7 -22z m-296 4 c0 -5 -2 -10
-4 -10 -3 0 -8 5 -11 10 -3 6 -1 10 4 10 6 0 11 -4 11 -10z m55 -8 c-3 -3 -11
0 -18 7 -9 10 -8 11 6 5 10 -3 15 -9 12 -12z m-95 -12 c0 -5 -5 -10 -11 -10
-5 0 -7 5 -4 10 3 6 8 10 11 10 2 0 4 -4 4 -10z m194 -6 c3 -8 2 -12 -4 -9 -6
3 -10 10 -10 16 0 14 7 11 14 -7z m46 6 c0 -5 -5 -10 -11 -10 -5 0 -7 5 -4 10
3 6 8 10 11 10 2 0 4 -4 4 -10z m-1023 -30 c1 -11 -2 -20 -5 -20 -4 0 -8 9 -9
20 -1 11 2 20 5 20 4 0 8 -9 9 -20z m359 -11 c-15 -12 -23 -26 -19 -32 4 -7
-1 -6 -10 2 -16 13 -16 15 -1 32 9 10 20 16 25 14 4 -3 11 0 14 6 4 5 9 8 13
5 3 -3 -7 -15 -22 -27z m124 21 c0 -5 -2 -10 -4 -10 -3 0 -8 5 -11 10 -3 6 -1
10 4 10 6 0 11 -4 11 -10z m160 6 c0 -2 -7 -7 -16 -10 -8 -3 -12 -2 -9 4 6 10
25 14 25 6z m285 -6 c-3 -5 -12 -10 -18 -10 -7 0 -6 4 3 10 19 12 23 12 15 0z
m345 6 c0 -7 -40 -14 -44 -7 -3 4 6 8 20 9 13 1 24 0 24 -2z m50 -27 c0 -6 -4
-7 -10 -4 -5 3 -10 11 -10 16 0 6 5 7 10 4 6 -3 10 -11 10 -16z m-640 5 c0 -8
-19 -13 -24 -6 -3 5 1 9 9 9 8 0 15 -2 15 -3z m-293 -26 c-3 -8 -6 -5 -6 6 -1
11 2 17 5 13 3 -3 4 -12 1 -19z m914 5 c13 -16 12 -17 -3 -4 -10 7 -18 15 -18
17 0 8 8 3 21 -13z m-746 -3 c3 -5 1 -10 -4 -10 -6 0 -11 5 -11 10 0 6 2 10 4
10 3 0 8 -4 11 -10z m210 0 c3 -6 -1 -7 -9 -4 -18 7 -21 14 -7 14 6 0 13 -4
16 -10z m475 -16 c0 -8 -19 -13 -24 -6 -3 5 1 9 9 9 8 0 15 -2 15 -3z m-483
-33 c0 -11 -5 -18 -9 -15 -4 3 -5 11 -1 19 7 21 12 19 10 -4z m83 9 c0 -5 -5
-10 -11 -10 -5 0 -7 5 -4 10 3 6 8 10 11 10 2 0 4 -4 4 -10z m436 -5 c-1 -8
-5 -17 -8 -21 -5 -4 -4 16 1 34 3 9 9 -1 7 -13z m40 0 c-1 -8 -5 -17 -8 -21
-5 -4 -4 16 1 34 3 9 9 -1 7 -13z m-783 -10 c-3 -9 -8 -14 -10 -11 -3 3 -2 9
2 15 9 16 15 13 8 -4z m-327 -10 c-1 -8 -7 -20 -13 -26 -13 -13 -13 7 0 29 11
16 16 15 13 -3z m1154 5 c0 -5 -2 -10 -4 -10 -3 0 -8 5 -11 10 -3 6 -1 10 4
10 6 0 11 -4 11 -10z m-185 -9 c3 -5 2 -12 -3 -15 -5 -3 -9 1 -9 9 0 17 3 19
12 6z m1008 -1 c-7 -8 -52 -7 -47 1 2 4 15 6 28 5 13 0 22 -3 19 -6z m-1578
-10 c3 -6 -1 -7 -9 -4 -18 7 -21 14 -7 14 6 0 13 -4 16 -10z m295 6 c0 -2 -7
-7 -16 -10 -8 -3 -12 -2 -9 4 6 10 25 14 25 6z m-585 -15 c3 -5 2 -12 -3 -15
-5 -3 -9 1 -9 9 0 17 3 19 12 6z m-195 -25 c0 -8 -4 -18 -10 -21 -6 -4 -7 1
-3 12 6 17 5 17 -15 -1 -12 -11 -25 -16 -29 -13 -3 4 -13 1 -21 -6 -13 -9 -14
-9 -8 1 4 6 2 12 -3 12 -6 0 -11 4 -11 8 0 4 11 8 24 8 14 0 22 -4 20 -8 -9
-14 13 -8 26 7 16 19 30 19 30 1z m137 -1 c0 -8 -4 -15 -9 -15 -10 0 -11 14
-1 23 9 10 10 9 10 -8z m-37 0 c0 -7 -30 -13 -34 -7 -3 4 4 9 15 9 10 1 19 0
19 -2z m633 -18 c4 3 7 0 7 -8 0 -12 2 -11 11 1 8 12 10 12 7 1 -2 -8 -14 -15
-26 -16 -12 -1 -20 0 -17 3 2 3 0 14 -6 26 -9 19 -9 19 4 4 8 -10 17 -15 20
-11z m691 15 c2 -4 -4 -8 -14 -8 -10 0 -16 4 -14 8 3 4 9 8 14 8 5 0 11 -4 14
-8z m-769 -21 c-10 -17 13 -21 29 -5 9 8 16 12 16 7 0 -17 -16 -30 -32 -28
-11 2 -15 -2 -11 -12 5 -12 7 -12 14 -1 7 10 9 10 9 -2 0 -13 2 -13 9 -1 11
16 79 22 88 7 3 -5 1 -6 -5 -2 -6 3 -14 1 -18 -5 -4 -8 -3 -9 4 -5 7 4 12 1
12 -6 0 -10 2 -10 9 1 5 8 7 20 4 28 -9 23 14 14 46 -19 19 -20 31 -26 31 -17
0 12 2 12 10 -1 5 -8 14 -16 20 -16 5 -1 15 -2 20 -3 6 0 10 -8 10 -16 0 -18
12 -19 29 -2 7 6 12 8 11 2 -2 -5 -1 -12 0 -15 7 -19 7 -39 -1 -34 -5 3 -7 9
-4 14 3 4 -3 7 -12 6 -10 -2 -23 6 -30 18 -10 17 -12 18 -13 4 0 -9 -3 -18 -7
-21 -5 -2 -3 -3 4 -1 6 1 14 0 18 -4 4 -4 12 -7 18 -7 7 0 13 -6 13 -12 3 -24
4 -25 17 -14 15 12 27 6 23 -12 -2 -7 -1 -9 1 -4 3 4 12 7 21 8 13 0 11 3 -5
11 -23 11 -32 38 -13 38 5 0 9 -6 7 -12 -1 -8 7 -12 23 -10 19 2 22 0 10 -8
-8 -5 -10 -10 -5 -10 6 0 1 -8 -10 -17 -14 -11 -15 -14 -4 -10 9 3 21 1 27 -5
6 -6 15 -2 26 13 21 30 21 16 0 -16 -9 -14 -21 -22 -27 -18 -6 4 -7 1 -2 -6 5
-9 14 -6 33 11 14 13 22 17 18 11 -4 -7 -2 -13 3 -13 6 0 11 -7 11 -15 0 -8 5
-16 10 -16 6 -1 15 -2 21 -3 7 0 16 -10 21 -21 7 -18 8 -17 4 3 -3 13 -2 21 1
18 4 -3 13 0 21 7 10 7 13 8 9 1 -11 -18 20 -39 37 -25 10 9 16 7 27 -5 10
-13 10 -17 -1 -24 -9 -5 -20 -5 -27 2 -7 6 -13 7 -13 2 0 -4 -6 0 -13 10 -12
17 -14 17 -20 3 -4 -10 -2 -16 6 -14 7 1 11 -3 10 -10 -1 -6 5 -10 15 -9 21 4
64 -23 57 -34 -3 -5 8 -7 25 -5 19 3 28 0 24 -6 -3 -6 3 -13 15 -16 11 -3 18
-9 16 -14 -3 -4 6 -6 21 -3 19 3 24 1 18 -8 -4 -7 -4 -10 1 -6 8 8 29 -10 37
-32 3 -10 6 -8 10 8 4 12 3 20 -2 17 -4 -2 -15 4 -24 14 -15 17 -15 19 1 38
10 10 15 14 11 8 -10 -16 -3 -50 10 -51 7 -1 17 -2 22 -3 6 0 10 -6 10 -12 0
-5 -4 -8 -9 -5 -5 4 -8 -2 -7 -11 2 -10 -2 -22 -8 -26 -7 -6 -6 -7 4 -4 33 10
64 17 53 11 -7 -3 -13 -10 -13 -15 0 -6 5 -7 10 -4 6 3 10 -1 10 -9 0 -9 5
-16 11 -16 5 0 8 -4 5 -9 -4 -5 -3 -11 1 -14 5 -2 2 -2 -4 -1 -15 4 -45 -35
-37 -48 3 -4 0 -8 -6 -8 -7 0 -10 7 -7 15 4 8 1 17 -5 21 -7 4 -8 3 -4 -4 4
-7 2 -12 -3 -12 -6 0 -11 5 -11 12 0 6 -3 8 -6 5 -4 -4 -2 -12 4 -20 7 -8 7
-18 2 -27 -6 -8 -10 -10 -10 -4 0 5 -7 19 -16 30 -15 18 -15 18 -5 -3 16 -32
13 -41 -6 -18 -13 16 -15 17 -10 3 4 -10 2 -18 -3 -18 -6 0 -10 5 -10 12 0 6
-3 8 -6 5 -4 -4 -1 -14 6 -22 11 -13 11 -16 -1 -13 -8 2 -17 8 -21 13 -4 6 -8
0 -8 -12 0 -12 -5 -25 -12 -29 -7 -4 -8 -3 -4 4 4 7 1 12 -6 13 -10 0 -10 2 0
6 6 2 12 9 12 15 0 7 -5 7 -13 -1 -17 -13 -14 -57 2 -53 7 1 10 -2 6 -8 -8
-12 -36 6 -32 20 1 4 -2 7 -8 7 -5 -1 -9 -9 -7 -17 2 -12 0 -12 -10 1 -12 15
-15 15 -28 1 -13 -14 -12 -15 3 -9 9 3 17 2 17 -3 0 -6 -10 -10 -21 -10 -19 0
-20 -2 -8 -17 12 -14 12 -15 0 -9 -8 5 -17 3 -23 -5 -8 -11 -9 -10 -5 3 7 19
-19 33 -29 16 -4 -7 -3 -8 4 -4 8 5 12 0 12 -13 0 -12 -5 -21 -11 -21 -5 0 -8
4 -5 9 9 13 -19 21 -35 9 -11 -8 -11 -9 3 -5 12 4 16 0 15 -13 -1 -13 -5 -16
-17 -11 -18 10 -40 4 -40 -11 0 -7 5 -6 14 1 10 8 16 9 21 1 4 -6 1 -9 -7 -8
-7 2 -12 -4 -10 -12 3 -10 -3 -9 -19 5 -12 11 -20 15 -16 10 3 -6 2 -17 -4
-25 -7 -12 -9 -11 -10 5 0 16 -2 15 -10 -7 -6 -14 -17 -29 -26 -32 -12 -5 -13
-4 -5 7 9 10 8 18 -4 33 -14 18 -14 18 -4 -4 11 -22 10 -23 -12 -17 -12 3 -18
3 -13 -2 19 -14 5 -54 -18 -52 -8 0 -7 3 2 6 11 5 11 7 0 15 -10 7 -9 8 6 3
17 -5 18 -4 7 7 -11 11 -16 10 -28 -7 -8 -11 -12 -25 -10 -32 3 -7 -1 -10 -10
-6 -7 3 -14 -1 -14 -8 0 -7 -3 -9 -7 -6 -3 4 -11 -1 -18 -10 -11 -14 -12 -14
-18 1 -4 10 -3 15 3 11 6 -3 10 -1 10 4 0 6 -7 11 -15 11 -15 0 -16 -24 -1
-48 7 -11 4 -11 -12 -1 -12 7 -18 17 -15 22 3 5 -7 1 -22 -9 -17 -11 -25 -24
-22 -35 3 -12 0 -16 -9 -12 -8 3 -14 1 -14 -5 0 -5 -11 -9 -25 -10 -13 0 -22
4 -19 9 3 5 0 9 -5 9 -6 0 -11 -10 -11 -22 0 -15 -3 -19 -8 -11 -5 8 -13 9
-22 3 -20 -13 -30 -12 -30 1 0 5 4 8 9 5 5 -3 15 1 22 10 10 12 10 15 -2 12
-8 -2 -13 3 -11 10 1 8 -2 11 -8 7 -6 -3 -8 -10 -5 -15 3 -5 1 -11 -4 -15 -5
-3 -15 3 -21 12 -11 17 -11 17 -6 1 3 -10 1 -18 -4 -18 -6 0 -10 7 -10 16 0 9
-5 12 -12 8 -8 -5 -7 0 2 11 14 17 14 18 -7 6 -15 -7 -23 -8 -23 -1 0 5 5 10
11 10 5 0 7 5 3 11 -4 8 -12 3 -20 -12 l-14 -24 4 26 c3 17 0 26 -10 26 -10 0
-12 -7 -9 -21 5 -19 5 -19 -5 -3 -6 9 -17 14 -23 10 -7 -3 -3 4 8 18 11 13 13
18 4 11 -9 -6 -19 -9 -22 -5 -4 3 -7 1 -7 -5 0 -7 -4 -12 -10 -12 -5 0 -9 6
-7 13 1 7 -7 12 -19 11 -14 0 -20 4 -17 13 4 9 10 10 26 2 20 -9 20 -9 5 4
-10 8 -14 18 -10 23 4 4 0 3 -9 -4 -9 -6 -19 -9 -22 -5 -4 3 -7 0 -7 -7 0 -7
-3 -10 -6 -7 -4 4 -1 13 5 21 9 11 9 16 0 22 -7 4 -9 3 -6 -3 4 -6 -2 -13 -13
-16 -23 -6 -36 8 -19 19 8 5 9 3 4 -6 -5 -9 -4 -11 4 -6 9 6 9 11 1 21 -7 8
-8 20 -4 26 5 8 3 9 -5 5 -7 -5 -10 -13 -8 -20 3 -6 -2 -17 -9 -24 -12 -10
-13 -9 -11 10 1 12 -2 23 -8 23 -19 1 -35 17 -29 28 4 7 3 8 -2 4 -5 -5 -9
-13 -9 -18 0 -5 -4 -8 -10 -6 -5 1 -9 6 -7 11 2 5 -4 6 -12 3 -10 -4 -13 -1
-9 8 3 8 -2 18 -11 21 -9 3 -14 10 -11 14 3 5 -3 7 -12 5 -11 -1 -17 -10 -16
-21 1 -11 0 -13 -3 -6 -3 6 -10 9 -16 6 -6 -4 -6 1 1 13 8 15 7 25 -5 39 -14
18 -15 18 -4 -3 7 -16 7 -23 0 -23 -5 0 -10 5 -10 10 0 6 -4 10 -10 10 -5 0
-7 -6 -4 -14 3 -8 1 -17 -5 -21 -6 -3 -9 0 -5 8 6 16 -20 40 -49 44 -22 4 -60
33 -53 41 3 2 12 -3 21 -12 9 -9 22 -16 28 -16 7 0 4 5 -6 11 -9 6 -15 15 -11
20 3 5 2 9 -3 8 -23 -4 -35 2 -29 17 3 9 2 12 -5 9 -6 -4 -8 -13 -5 -21 3 -8
1 -14 -4 -14 -10 0 -14 15 -10 35 1 5 -2 7 -5 3 -4 -4 -17 -3 -28 3 -13 7 -17
7 -13 1 3 -6 1 -14 -5 -18 -7 -4 -9 -3 -6 3 8 12 -20 53 -35 53 -7 0 -3 -7 8
-16 18 -15 18 -15 -3 -4 -13 6 -27 19 -33 31 -6 11 -16 17 -21 13 -8 -4 -8 0
-1 12 5 11 7 24 5 30 -2 6 6 14 18 17 13 4 18 10 13 18 -4 8 -3 10 5 5 6 -4 9
-12 6 -17 -4 -5 -1 -9 5 -9 6 0 8 -5 4 -12 -4 -6 -3 -8 3 -5 13 8 4 57 -10 57
-6 0 -7 3 -4 6 4 4 18 -1 32 -10 14 -9 25 -15 26 -14 8 29 5 35 -15 32 -20 -4
-20 -4 -1 5 15 6 24 4 35 -8 8 -9 14 -14 12 -12 -4 8 31 41 45 41 7 0 13 5 13
10 0 14 -23 8 -37 -10 -7 -9 -12 -10 -13 -4 0 15 25 36 33 27 4 -3 7 1 7 10 0
9 4 17 10 17 5 0 7 -8 3 -17 -3 -10 -3 -15 2 -11 4 4 15 2 23 -5 12 -9 14 -9
9 0 -5 7 1 16 13 23 11 6 20 19 20 30 0 10 9 21 19 25 14 4 18 12 14 23 -4 10
2 7 15 -8 22 -26 29 -21 13 9 -8 14 -6 17 7 16 9 -1 26 -6 38 -13 16 -9 21 -8
21 3 0 8 -4 12 -8 10 -3 -3 -13 3 -20 13 -13 15 -12 16 4 3 15 -12 17 -11 17
5 1 13 5 10 14 -11 11 -26 13 -27 19 -10 5 10 3 21 -3 25 -8 5 -7 9 4 13 8 3
18 1 22 -5 5 -7 2 -8 -6 -3 -9 5 -11 4 -6 -4 11 -17 26 -3 20 17 -4 11 2 8 15
-8 12 -14 19 -18 15 -8 -4 12 -1 16 13 14 10 -2 12 -1 5 1 -7 3 -9 10 -5 16 4
7 -1 6 -10 -2 -26 -20 -20 -5 8 23 13 14 27 20 30 15 4 -5 11 -6 17 -3 6 4 1
13 -13 21 -17 10 -18 12 -4 7 44 -15 66 -16 82 -3 15 12 16 12 10 -6 -7 -20
-7 -20 8 -1 8 11 13 28 9 38 -3 10 0 18 6 18 6 0 8 6 4 13 -4 6 -3 8 1 4 14
-12 15 -38 2 -30 -7 3 -8 2 -4 -2 17 -19 34 -13 29 11 -2 14 0 24 7 24 7 0 9
5 5 12 -5 7 -3 8 6 3 10 -6 12 -3 7 11 -7 18 -6 18 6 2 16 -20 39 -5 30 18 -3
8 0 14 7 14 6 0 9 -4 5 -9z m325 5 c0 -3 -4 -8 -10 -11 -5 -3 -10 -1 -10 4 0
6 5 11 10 11 6 0 10 -2 10 -4z m395 -5 c-9 -8 -36 -10 -30 -2 2 4 11 8 20 8 8
0 13 -3 10 -6z m126 -18 c13 -16 12 -17 -3 -4 -10 7 -18 15 -18 17 0 8 8 3 21
-13z m-644 -8 c0 -8 -4 -12 -9 -9 -4 3 -8 9 -8 15 0 5 4 9 8 9 5 0 9 -7 9 -15z
m268 5 c-3 -5 -12 -10 -18 -10 -7 0 -6 4 3 10 19 12 23 12 15 0z m-128 -15 c0
-8 -4 -12 -9 -9 -5 3 -6 10 -3 15 9 13 12 11 12 -6z m-457 0 c0 -7 -30 -13
-34 -7 -3 4 4 9 15 9 10 1 19 0 19 -2z m399 -18 c8 -10 7 -14 -2 -14 -8 0 -14
6 -14 14 0 7 1 13 2 13 2 0 8 -6 14 -13z m101 -7 c0 -5 -2 -10 -4 -10 -3 0 -8
5 -11 10 -3 6 -1 10 4 10 6 0 11 -4 11 -10z m-605 -20 c3 -5 1 -10 -4 -10 -6
0 -11 5 -11 10 0 6 2 10 4 10 3 0 8 -4 11 -10z m665 6 c0 -3 -4 -8 -10 -11 -5
-3 -10 -1 -10 4 0 6 5 11 10 11 6 0 10 -2 10 -4z m40 -6 c0 -5 -2 -10 -4 -10
-3 0 -8 5 -11 10 -3 6 -1 10 4 10 6 0 11 -4 11 -10z m-1661 -44 c0 -6 -3 -5
-6 2 -2 6 -8 10 -12 8 -4 -3 -8 5 -8 17 -2 21 -1 22 13 3 8 -11 14 -25 13 -30z
m1055 28 c3 -8 2 -12 -3 -9 -5 3 -12 1 -16 -5 -4 -6 -11 -8 -16 -4 -5 3 -7 10
-3 15 3 5 10 7 15 4 5 -4 9 -1 9 4 0 16 7 13 14 -5z m483 -1 c-4 -3 -1 -13 6
-22 11 -14 10 -14 -5 -2 -16 12 -16 31 -1 31 4 0 3 -3 0 -7z m-802 -23 c3 -5
1 -10 -4 -10 -6 0 -11 5 -11 10 0 6 2 10 4 10 3 0 8 -4 11 -10z m45 0 c0 -5
-5 -10 -11 -10 -5 0 -7 5 -4 10 3 6 8 10 11 10 2 0 4 -4 4 -10z m860 0 c0 -5
-5 -10 -11 -10 -5 0 -7 5 -4 10 3 6 8 10 11 10 2 0 4 -4 4 -10z m673 -5 c-3
-9 -8 -14 -10 -11 -3 3 -2 9 2 15 9 16 15 13 8 -4z m-1628 -15 c-3 -5 -12 -10
-18 -10 -7 0 -6 4 3 10 19 12 23 12 15 0z m909 2 c3 -5 -1 -9 -9 -9 -8 0 -12
4 -9 9 3 4 7 8 9 8 2 0 6 -4 9 -8z m206 -2 c0 -5 -2 -10 -4 -10 -3 0 -8 5 -11
10 -3 6 -1 10 4 10 6 0 11 -4 11 -10z m-226 -35 c-4 -8 -8 -15 -10 -15 -2 0
-4 7 -4 15 0 8 4 15 10 15 5 0 7 -7 4 -15z m59 -10 c-7 -21 -12 -19 -10 4 0
11 5 18 9 15 4 -3 5 -11 1 -19z m-994 12 c-2 -1 -13 -9 -24 -17 -19 -14 -19
-14 -6 3 7 9 18 17 24 17 6 0 8 -1 6 -3z m215 -9 c-3 -4 -9 -8 -15 -8 -5 0 -9
4 -9 8 0 5 7 9 15 9 8 0 12 -4 9 -9z m942 -3 c-1 -8 -5 -17 -8 -21 -5 -4 -4
16 1 34 3 9 9 -1 7 -13z m799 -4 c3 -5 0 -13 -6 -17 -7 -4 -9 -3 -5 4 3 5 0
13 -6 15 -9 4 -10 6 -1 6 6 1 14 -3 18 -8z m-938 -7 c-3 -4 -2 -15 3 -24 8
-15 6 -18 -8 -16 -9 2 -17 8 -16 14 2 27 5 32 16 32 6 0 8 -3 5 -6z m840 -10
c-3 -3 -12 -4 -19 -1 -8 3 -5 6 6 6 11 1 17 -2 13 -5z m-1864 -19 c4 -8 3 -16
-1 -19 -4 -3 -9 4 -9 15 -2 23 3 25 10 4z m1067 9 c0 -8 -19 -13 -24 -6 -3 5
1 9 9 9 8 0 15 -2 15 -3z m36 -19 c1 -8 -2 -15 -6 -15 -5 0 -8 9 -7 20 1 21
10 18 13 -5z m-1061 -5 c3 -5 1 -10 -4 -10 -6 0 -11 5 -11 10 0 6 2 10 4 10 3
0 8 -4 11 -10z m1125 0 c0 -5 -5 -10 -11 -10 -5 0 -7 5 -4 10 3 6 8 10 11 10
2 0 4 -4 4 -10z m125 -20 c3 -6 -1 -7 -9 -4 -18 7 -21 14 -7 14 6 0 13 -4 16
-10z m-1935 -35 c-10 -12 -10 -15 0 -15 8 0 11 -3 7 -6 -14 -14 -26 7 -15 26
7 11 14 17 17 15 2 -3 -2 -11 -9 -20z m1865 15 c3 -5 1 -10 -4 -10 -6 0 -11 5
-11 10 0 6 2 10 4 10 3 0 8 -4 11 -10z m-44 -30 c6 0 7 6 3 13 -5 8 -2 7 10
-2 15 -13 15 -16 2 -29 -13 -13 -18 -12 -43 8 -15 13 -20 20 -10 17 12 -4 17
-1 18 11 1 16 2 16 6 0 2 -10 9 -18 14 -18z m-1147 -6 c3 -7 1 -16 -5 -19 -5
-4 -8 -2 -7 4 2 5 -6 16 -17 25 -20 15 -20 15 2 10 12 -4 24 -12 27 -20z m23
4 c-3 -8 -6 -5 -6 6 -1 11 2 17 5 13 3 -3 4 -12 1 -19z m-114 -3 c-3 -9 -8
-14 -10 -11 -3 3 -2 9 2 15 9 16 15 13 8 -4z m1292 -17 c-1 -12 -8 -24 -16
-26 -11 -3 -11 -1 1 7 12 8 12 11 1 11 -11 0 -11 3 -1 15 16 19 17 19 15 -7z
m50 13 c3 -5 2 -12 -3 -15 -5 -3 -9 1 -9 9 0 17 3 19 12 6z m-12 -34 c7 4 6 0
-2 -10 -17 -22 -31 -13 -23 16 5 18 7 19 10 4 2 -10 8 -14 15 -10z m-1333 -22
c7 -9 8 -15 2 -15 -5 0 -12 7 -16 15 -3 8 -4 15 -2 15 2 0 9 -7 16 -15z m1929
-48 c8 -10 7 -14 -2 -14 -8 0 -14 6 -14 14 0 7 1 13 2 13 2 0 8 -6 14 -13z
m-504 -7 c-3 -5 -12 -10 -18 -10 -7 0 -6 4 3 10 19 12 23 12 15 0z m515 -28
c0 -13 -12 -22 -22 -16 -10 6 -1 24 13 24 5 0 9 -4 9 -8z m-470 -76 c0 -3 -4
-8 -10 -11 -5 -3 -10 -1 -10 4 0 6 5 11 10 11 6 0 10 -2 10 -4z m464 -14 c3
-5 -1 -9 -9 -9 -8 0 -12 4 -9 9 3 4 7 8 9 8 2 0 6 -4 9 -8z m3 -37 c0 -8 -4
-12 -9 -9 -4 3 -8 9 -8 15 0 5 4 9 8 9 5 0 9 -7 9 -15z m-1943 -16 c-3 -5 -10
-7 -15 -3 -5 3 -7 10 -3 15 3 5 10 7 15 3 5 -3 7 -10 3 -15z m1937 -102 c-13
-13 -26 -3 -16 12 3 6 11 8 17 5 6 -4 6 -10 -1 -17z m-1697 -20 c4 4 4 -1 0
-10 -7 -20 -7 -20 -23 13 -11 22 -10 23 2 8 8 -10 17 -15 21 -11z m90 -56 c-9
-9 -34 -9 -34 -1 0 5 9 8 20 7 10 -1 17 -3 14 -6z m1523 -6 c0 -8 -4 -12 -9
-9 -5 3 -6 10 -3 15 9 13 12 11 12 -6z m-2290 -40 c0 -8 -4 -12 -9 -9 -5 3 -6
10 -3 15 9 13 12 11 12 -6z m89 -33 c-9 -8 -56 -11 -51 -2 2 4 16 8 30 8 14 0
24 -3 21 -6z m2061 -17 c-9 -7 -13 -16 -9 -20 4 -5 1 -5 -6 -1 -8 5 -23 -1
-39 -15 -26 -24 -26 -24 -12 -1 8 12 22 25 32 28 9 3 15 10 12 15 -3 5 2 6 11
2 13 -5 15 -3 9 7 -6 9 -4 11 5 5 10 -6 10 -11 -3 -20z m43 21 c0 -3 -4 -8
-10 -11 -5 -3 -10 -1 -10 4 0 6 5 11 10 11 6 0 10 -2 10 -4z m-936 -44 c2 -4
-5 -9 -17 -9 -17 -2 -19 0 -7 7 18 12 18 12 24 2z m-924 -102 c0 -5 -2 -10 -4
-10 -3 0 -8 5 -11 10 -3 6 -1 10 4 10 6 0 11 -4 11 -10z m1460 -74 c0 -3 -4
-8 -10 -11 -5 -3 -10 -1 -10 4 0 6 5 11 10 11 6 0 10 -2 10 -4z m-570 -341 c0
-2 -9 -9 -20 -15 -16 -9 -18 -8 -14 5 5 13 34 22 34 10z m-50 -23 c0 -5 -7 -9
-15 -9 -8 0 -12 4 -9 9 3 4 9 8 15 8 5 0 9 -4 9 -8z"/>
<path d="M1433 2680 c-1 -11 2 -20 5 -20 4 0 8 9 9 20 1 11 -2 20 -5 20 -4 0
-8 -9 -9 -20z"/>
<path d="M879 1703 c-13 -16 -12 -17 4 -4 16 13 21 21 13 21 -2 0 -10 -8 -17
-17z"/>
<path d="M1465 1506 c0 -15 5 -23 15 -21 23 4 34 -6 19 -17 -11 -8 -10 -9 4
-4 10 3 17 0 17 -7 0 -8 3 -8 9 2 7 11 10 10 18 -4 9 -16 10 -16 17 1 4 10 4
15 0 11 -4 -4 -13 -2 -21 4 -7 6 -13 8 -13 3 0 -4 -15 6 -32 24 -32 30 -33 30
-33 8z"/>
<path d="M1305 1511 c-3 -6 -10 -9 -15 -6 -4 3 -13 -2 -20 -10 -10 -12 -10
-15 1 -15 18 1 54 28 47 36 -3 3 -9 0 -13 -5z"/>
<path d="M1304 1474 c-18 -14 -18 -15 4 -4 12 6 22 13 22 15 0 8 -5 6 -26 -11z"/>
<path d="M1125 1402 c-3 -4 -12 -7 -18 -7 -7 0 -12 -4 -12 -10 0 -5 6 -9 13
-7 9 2 11 -1 6 -10 -4 -8 -3 -10 2 -5 5 5 9 14 9 20 0 7 8 11 18 9 20 -3 23 4
3 11 -8 3 -17 3 -21 -1z"/>
<path d="M1024 1314 c-18 -14 -18 -15 4 -4 12 6 22 13 22 15 0 8 -5 6 -26 -11z"/>
<path d="M925 1300 c-3 -5 -1 -10 4 -10 6 0 11 5 11 10 0 6 -2 10 -4 10 -3 0
-8 -4 -11 -10z"/>
<path d="M1896 1281 c-4 -5 -2 -12 3 -15 5 -4 12 -2 15 3 4 5 2 12 -3 15 -5 4
-12 2 -15 -3z"/>
<path d="M880 1270 c-7 -5 -15 -16 -16 -24 -1 -9 2 -14 7 -10 5 3 7 10 4 15
-4 5 1 9 10 9 9 0 14 -4 11 -8 -3 -5 1 -9 9 -9 12 0 12 3 3 16 -7 9 -13 17
-13 18 0 1 -7 -2 -15 -7z"/>
<path d="M930 1270 c0 -5 5 -10 11 -10 5 0 7 5 4 10 -3 6 -8 10 -11 10 -2 0
-4 -4 -4 -10z"/>
<path d="M1795 1270 c3 -5 8 -10 11 -10 2 0 4 5 4 10 0 6 -5 10 -11 10 -5 0
-7 -4 -4 -10z"/>
<path d="M839 1203 c-13 -16 -12 -17 4 -4 16 13 21 21 13 21 -2 0 -10 -8 -17
-17z"/>
<path d="M667 1109 c7 -7 15 -10 18 -7 3 3 -2 9 -12 12 -14 6 -15 5 -6 -5z"/>
<path d="M620 1089 c0 -5 -4 -8 -8 -5 -5 3 -8 -5 -7 -17 2 -30 19 -24 22 8 1
14 0 25 -3 25 -2 0 -4 -5 -4 -11z"/>
<path d="M2130 1070 c0 -5 5 -10 11 -10 5 0 7 5 4 10 -3 6 -8 10 -11 10 -2 0
-4 -4 -4 -10z"/>
<path d="M2154 1046 c-3 -9 -11 -13 -17 -9 -6 4 -7 1 -2 -6 6 -10 11 -9 23 3
9 8 13 19 9 22 -4 4 -9 -1 -13 -10z"/>
<path d="M625 1030 c-3 -6 1 -7 9 -4 18 7 21 14 7 14 -6 0 -13 -4 -16 -10z"/>
<path d="M819 948 c-4 -13 -5 -47 -1 -43 3 3 13 -2 23 -11 11 -10 19 -12 24
-4 4 6 1 9 -7 8 -7 -2 -12 3 -10 10 1 8 -2 11 -8 7 -9 -6 -14 7 -11 28 1 6 -8
11 -10 5z"/>
<path d="M990 830 c-9 -6 -10 -10 -3 -10 6 0 15 5 18 10 8 12 4 12 -15 0z"/>
<path d="M1612 728 c2 -8 -6 -12 -22 -11 -22 3 -23 2 -6 -8 14 -9 22 -8 33 4
11 10 12 17 4 22 -7 4 -10 1 -9 -7z"/>
<path d="M1187 706 c-4 -10 -1 -13 8 -9 8 3 12 9 9 14 -7 12 -11 11 -17 -5z"/>
<path d="M1444 629 c-8 -14 14 -19 25 -6 8 10 7 14 -5 14 -8 0 -17 -4 -20 -8z"/>
<path d="M1950 1226 c7 -7 13 -7 20 0 6 6 3 10 -10 10 -13 0 -16 -4 -10 -10z"/>
<path d="M2137 2964 c-7 -7 14 -44 25 -44 5 0 8 7 8 15 0 8 -6 14 -12 13 -7
-2 -12 3 -10 10 2 13 -1 15 -11 6z"/>
<path d="M2182 2930 c-9 -15 -9 -20 0 -20 6 0 8 -3 5 -7 -4 -4 -20 3 -36 15
-28 21 -29 21 -46 2 -17 -19 -17 -19 4 -15 11 2 21 0 21 -6 0 -5 -4 -9 -10 -9
-5 0 -10 -5 -10 -11 0 -5 5 -7 10 -4 6 3 10 1 10 -4 0 -6 -4 -11 -10 -11 -5 0
-10 -5 -10 -11 0 -5 5 -7 11 -4 12 8 -11 -37 -25 -46 -5 -4 1 -10 12 -14 22
-6 25 -24 8 -37 -13 -9 -37 2 -30 13 3 5 10 6 16 3 7 -5 8 -2 4 5 -6 9 -13 8
-27 -5 -20 -18 -24 -25 -11 -23 18 3 33 -2 28 -9 -3 -5 1 -9 9 -9 8 0 12 3 10
7 -2 4 2 7 9 7 7 0 13 -6 13 -13 0 -7 -4 -11 -8 -9 -3 3 -12 -2 -19 -10 -13
-16 -35 -21 -25 -6 3 5 1 12 -4 15 -5 4 -8 -2 -7 -11 2 -10 9 -19 17 -19 8 -1
20 -2 28 -3 8 0 11 -4 8 -8 -4 -3 -1 -13 6 -21 8 -10 8 -13 1 -9 -7 4 -14 1
-17 -7 -4 -9 -15 -13 -29 -10 -13 2 -16 1 -8 -2 23 -10 30 -27 17 -37 -8 -6
-8 -7 3 -4 8 2 14 11 12 21 -2 10 4 16 15 16 14 0 15 -2 4 -9 -11 -7 -10 -11
5 -21 16 -10 16 -11 2 -6 -12 3 -18 0 -18 -10 0 -8 -4 -13 -9 -9 -5 3 -13 0
-17 -6 -4 -7 -3 -9 4 -5 17 10 20 -18 3 -32 -14 -11 -13 -12 4 -4 11 6 23 10
28 11 4 1 8 1 10 2 29 9 36 6 27 -12 -13 -24 -21 -25 -13 -1 5 14 3 15 -8 4
-11 -10 -10 -15 4 -27 9 -8 15 -12 12 -9 -2 3 2 12 8 19 9 10 17 10 32 2 17
-9 18 -8 7 5 -10 13 -9 18 5 29 16 13 17 12 4 -3 -14 -19 -5 -23 18 -9 13 8
13 12 0 28 -13 16 -12 17 3 5 14 -11 18 -10 26 4 7 13 13 14 30 5 30 -16 33
-14 28 14 -3 15 0 24 7 22 7 -1 11 3 10 10 -2 7 4 10 12 7 8 -4 15 -10 15 -15
0 -5 5 -9 11 -9 5 0 7 5 4 10 -6 10 7 14 31 11 13 -1 28 28 19 37 -3 3 -5 0
-5 -7 0 -7 -5 -9 -12 -5 -6 4 -9 3 -6 -2 4 -5 -6 -10 -20 -11 l-27 -1 30 15
c17 9 38 22 47 30 16 14 17 13 13 -13 -2 -16 -2 -23 1 -16 3 6 13 12 22 12 14
0 15 2 3 9 -13 8 -13 12 0 27 13 15 12 16 -9 10 -22 -7 -22 -7 3 19 19 22 22
31 14 46 -12 23 -15 23 -23 3 -3 -8 -2 -12 4 -9 6 3 7 -1 4 -9 -9 -25 -26 -7
-20 20 5 18 2 24 -10 24 -9 0 -23 8 -31 18 -13 15 -13 14 -2 -8 9 -20 9 -23
-1 -13 -7 6 -20 9 -29 6 -13 -5 -14 -3 -3 8 14 15 16 33 3 24 -6 -3 -14 3 -20
12 -6 10 -11 13 -11 7 0 -7 -9 -14 -21 -17 -12 -3 -18 -3 -15 0 3 4 0 13 -7
22 -10 14 -10 14 5 3 10 -8 19 -9 22 -3 4 5 2 12 -4 16 -5 3 -10 3 -10 -1 0
-4 -10 1 -22 12 -12 10 -18 14 -15 7 4 -6 4 -13 0 -16 -5 -2 -3 -3 3 -1 7 1
10 -5 7 -17 -3 -10 -10 -19 -15 -19 -5 0 -7 4 -3 9 3 5 1 12 -4 16 -6 3 -8 12
-4 20 3 8 0 15 -6 15 -6 0 -11 -4 -11 -8 0 -4 -10 -8 -22 -9 l-23 -2 23 13 23
12 -23 19 c-13 11 -17 13 -10 5 16 -18 15 -27 -3 -27 -8 0 -12 4 -9 9 3 4 1 8
-5 8 -6 0 -8 7 -5 15 9 21 1 19 -14 -5z m-48 -8 c3 -5 -1 -9 -9 -9 -8 0 -12 4
-9 9 3 4 7 8 9 8 2 0 6 -4 9 -8z m231 -92 c3 -5 1 -10 -4 -10 -6 0 -11 5 -11
10 0 6 2 10 4 10 3 0 8 -4 11 -10z m-228 -23 c0 -8 -6 -14 -13 -14 -7 0 -10 6
-7 14 3 7 8 13 12 13 4 0 8 -6 8 -13z m307 -32 c-4 -8 -8 -15 -10 -15 -2 0 -4
7 -4 15 0 8 4 15 10 15 5 0 7 -7 4 -15z m-130 -191 c5 -14 4 -15 -9 -4 -17 14
-19 20 -6 20 5 0 12 -7 15 -16z m-174 -34 c0 -5 -5 -10 -11 -10 -5 0 -7 5 -4
10 3 6 8 10 11 10 2 0 4 -4 4 -10z"/>
<path d="M1395 2861 c-3 -5 -1 -12 5 -16 5 -3 10 1 10 9 0 18 -6 21 -15 7z"/>
<path d="M1936 2785 c4 -10 2 -15 -7 -13 -7 2 -14 -3 -15 -9 -1 -7 -2 -19 -3
-25 -1 -9 -4 -9 -12 2 -9 12 -10 11 -6 -7 4 -19 2 -21 -13 -13 -13 7 -20 6
-24 -6 -3 -8 -2 -13 2 -10 5 3 9 -1 9 -9 0 -12 -3 -12 -15 -2 -12 9 -16 9 -19
0 -3 -7 -10 -13 -15 -13 -6 0 -9 3 -5 6 8 8 -46 54 -55 47 -15 -8 -8 -25 8
-19 10 4 13 2 8 -6 -5 -7 -3 -8 5 -3 10 6 11 3 3 -12 -7 -12 -7 -25 -1 -38 10
-20 10 -20 -6 0 -9 11 -21 19 -26 17 -6 -1 -8 2 -4 8 3 6 11 8 16 5 5 -4 9 -1
9 4 0 14 -17 14 -25 1 -3 -5 -11 -7 -18 -4 -17 6 -71 -51 -62 -66 5 -8 12 -6
25 7 9 10 13 20 9 23 -5 3 0 11 11 17 14 10 19 9 24 -2 3 -9 0 -12 -9 -9 -10
4 -13 0 -10 -15 2 -12 0 -19 -4 -16 -5 2 -17 -6 -27 -20 -10 -13 -21 -22 -25
-19 -5 2 -6 -5 -4 -16 2 -12 -2 -23 -11 -27 -12 -4 -12 -7 3 -18 13 -10 22
-10 31 -3 10 8 11 7 5 -8 -6 -17 -5 -18 12 -4 15 12 17 12 10 1 -6 -11 -4 -13
8 -8 12 4 21 -3 33 -24 11 -22 19 -28 26 -21 12 12 41 4 32 -9 -4 -8 15 -13
37 -11 4 1 15 -9 25 -21 16 -18 16 -20 2 -8 -12 9 -18 10 -18 2 0 -6 5 -11 11
-11 5 0 7 -5 4 -11 -4 -6 2 -5 13 2 12 7 18 18 15 24 -4 5 -2 6 3 2 5 -5 10
-13 10 -18 1 -5 2 -13 3 -19 2 -14 31 -13 31 2 0 6 3 8 6 5 4 -4 1 -13 -5 -21
-15 -18 5 -34 22 -17 9 9 7 10 -8 5 -17 -7 -18 -6 -5 8 8 9 17 13 20 9 3 -3
13 -7 23 -9 19 -3 23 14 5 21 -7 3 -3 4 9 4 18 -1 20 -4 11 -20 -7 -13 -6 -23
2 -31 8 -8 10 -7 4 7 -5 14 -2 16 12 11 13 -4 15 -3 7 3 -15 10 -10 48 9 71 9
11 9 14 1 9 -20 -13 -35 27 -18 49 18 24 19 40 1 25 -11 -9 -13 -6 -11 18 1
16 5 33 9 39 3 6 2 13 -3 17 -5 3 -8 15 -6 27 3 12 -1 29 -8 37 -10 14 -10 14
4 4 13 -11 18 -9 27 12 9 20 9 23 -3 18 -8 -3 -12 -9 -9 -14 3 -5 -2 -6 -12
-2 -15 5 -15 7 0 15 22 12 20 29 -1 22 -15 -5 -15 -4 1 6 15 10 20 9 27 -1 7
-11 9 -11 9 -1 0 7 -7 15 -16 19 -13 5 -13 8 -2 15 10 8 10 9 -2 5 -8 -2 -14
-10 -12 -16 1 -6 -3 -11 -8 -11 -15 0 -8 32 10 50 9 8 11 12 6 8 -18 -14 -29
-8 -16 7 7 8 9 15 4 15 -5 0 -18 -13 -29 -29 -11 -17 -21 -28 -24 -26 -2 3 4
17 14 32 13 20 14 24 3 16 -8 -7 -19 -9 -23 -5 -5 4 -5 2 -1 -5 3 -6 2 -14 -4
-18 -6 -4 -8 -10 -6 -14 3 -4 -5 -8 -17 -8 -20 -2 -21 -1 -4 11 19 15 22 32 7
41 -6 3 -7 -1 -4 -10z m-131 -115 c3 -5 1 -10 -4 -10 -6 0 -11 5 -11 10 0 6 2
10 4 10 3 0 8 -4 11 -10z m-135 -136 c0 -8 -5 -12 -10 -9 -6 4 -8 11 -5 16 9
14 15 11 15 -7z m341 -81 c13 -16 12 -17 -3 -4 -10 7 -18 15 -18 17 0 8 8 3
21 -13z m22 -40 c-3 -7 -8 -13 -12 -13 -4 0 -8 6 -8 13 0 8 6 14 13 14 7 0 10
-6 7 -14z"/>
<path d="M1796 2772 c-3 -5 1 -9 9 -9 8 0 12 4 9 9 -3 4 -7 8 -9 8 -2 0 -6 -4
-9 -8z"/>
<path d="M2492 2723 c1 -10 -1 -23 -5 -30 -5 -8 -1 -8 17 0 20 10 22 14 10 20
-8 5 -12 12 -9 18 4 5 1 9 -5 9 -6 0 -10 -8 -8 -17z"/>
<path d="M886 2713 c-4 -11 -1 -11 14 -3 24 13 25 17 5 17 -8 0 -16 -6 -19
-14z"/>
<path d="M2095 2659 c-4 -5 -13 -8 -21 -5 -7 3 -16 1 -18 -3 -6 -9 49 -9 59 1
3 3 2 9 -4 12 -5 4 -13 1 -16 -5z"/>
<path d="M2035 2620 c-3 -6 1 -7 9 -4 18 7 21 14 7 14 -6 0 -13 -4 -16 -10z"/>
<path d="M2040 2600 c-9 -6 -10 -10 -3 -10 6 0 15 5 18 10 8 12 4 12 -15 0z"/>
<path d="M2347 2603 c-11 -11 -8 -21 9 -27 13 -5 14 -4 6 7 -7 8 -9 17 -5 20
3 4 4 7 1 7 -2 0 -8 -3 -11 -7z"/>
<path d="M2055 2570 c3 -5 8 -10 11 -10 2 0 4 5 4 10 0 6 -5 10 -11 10 -5 0
-7 -4 -4 -10z"/>
<path d="M596 2562 c-3 -5 1 -9 9 -9 8 0 12 4 9 9 -3 4 -7 8 -9 8 -2 0 -6 -4
-9 -8z"/>
<path d="M2271 2557 c-8 -10 -7 -19 3 -33 14 -19 14 -19 13 1 -1 13 3 19 12
17 12 -3 12 0 1 12 -15 19 -15 19 -29 3z"/>
<path d="M2039 2558 c-9 -30 -6 -37 12 -28 23 13 25 22 2 13 -11 -4 -14 -3 -9
5 4 7 5 12 2 12 -3 0 -6 -1 -7 -2z"/>
<path d="M2370 2550 c0 -5 5 -10 11 -10 5 0 7 5 4 10 -3 6 -8 10 -11 10 -2 0
-4 -4 -4 -10z"/>
<path d="M2407 2526 c4 -5 -1 -7 -10 -3 -11 4 -14 2 -10 -8 3 -8 9 -13 13 -10
4 3 13 -2 20 -10 9 -10 9 -15 1 -15 -6 0 -11 5 -11 12 0 6 -3 8 -7 5 -3 -4
-15 1 -26 10 -15 13 -21 15 -24 5 -3 -6 -8 -10 -12 -8 -4 3 -8 -1 -8 -9 0 -13
3 -12 18 1 17 15 18 15 16 -3 -1 -23 -33 -24 -49 -2 -7 11 -9 8 -5 -9 5 -20 3
-21 -11 -10 -13 11 -15 11 -10 -3 4 -9 -2 -23 -13 -32 -10 -9 -19 -12 -19 -6
0 5 -5 7 -10 4 -6 -4 -7 -12 -3 -18 4 -7 0 -6 -10 2 -18 14 -23 26 -8 16 5 -3
12 -1 16 5 4 6 11 8 16 5 5 -4 9 -1 9 5 0 6 6 8 13 4 6 -4 9 -3 4 1 -11 13
-46 13 -44 1 1 -5 -2 -10 -8 -11 -5 0 -21 -7 -35 -15 -14 -8 -29 -14 -35 -15
-5 0 -10 -7 -10 -15 0 -8 -8 -15 -17 -15 -9 0 -20 -4 -25 -9 -4 -5 -3 -6 3 -3
7 4 15 0 18 -9 8 -22 8 -24 -5 -21 -6 1 -13 -9 -15 -23 -3 -18 -2 -21 5 -10 5
8 7 19 4 25 -4 5 3 2 14 -8 11 -9 23 -14 28 -10 4 5 5 2 1 -5 -4 -7 -11 -10
-16 -7 -4 3 -14 -3 -21 -13 -13 -15 -12 -16 4 -3 13 10 17 10 17 1 0 -10 3
-10 16 0 12 11 18 10 31 -3 14 -14 14 -19 3 -34 -12 -15 -12 -16 0 -5 17 15
50 16 50 1 0 -5 -4 -8 -8 -5 -4 2 -14 0 -22 -5 -11 -7 -9 -8 8 -6 13 2 28 10
33 18 13 21 11 1 -3 -24 -10 -19 -9 -20 4 -9 17 13 52 6 42 -9 -3 -5 0 -9 7
-9 6 0 18 -8 26 -17 13 -17 14 -16 8 4 -6 24 9 40 21 22 4 -8 3 -9 -4 -5 -15
9 -15 1 -2 -25 9 -16 31 -20 60 -9 3 2 9 2 13 1 5 -1 6 3 2 9 -3 6 -10 8 -15
5 -4 -3 -13 2 -20 10 -9 10 -9 15 -1 15 6 0 11 -5 11 -12 0 -9 3 -9 12 0 8 8
8 15 -3 29 -12 16 -12 17 2 6 9 -7 19 -9 24 -5 4 4 2 -3 -4 -15 -6 -13 -8 -23
-3 -23 16 0 22 41 7 46 -7 3 -16 13 -19 21 -6 14 -4 14 10 2 16 -13 16 -12 6
8 -14 26 -15 43 -3 43 5 0 8 -7 7 -16 0 -9 6 -19 14 -21 13 -4 13 -3 0 6 -13
10 -13 12 0 21 13 9 13 10 0 10 -13 0 -13 1 0 10 11 8 8 9 -12 6 -15 -3 -30 0
-34 5 -3 5 -2 9 3 8 21 -4 43 2 43 11 0 5 -8 7 -17 4 -15 -5 -15 -3 1 10 16
13 17 16 4 16 -10 0 -15 7 -13 18 1 9 -2 25 -7 34 -6 13 -5 16 6 12 8 -3 13
-14 11 -25 -2 -10 -1 -21 3 -23 4 -3 8 11 8 29 0 18 -4 31 -8 29 -4 -3 -8 -1
-8 5 0 5 7 14 16 19 11 6 13 11 5 16 -6 4 -11 2 -11 -4 0 -6 -5 -8 -10 -5 -8
5 -7 12 2 23 11 15 11 15 -3 5 -9 -7 -19 -10 -22 -6 -4 3 0 11 9 17 13 10 13
12 -5 12 -11 0 -17 -5 -14 -10z m28 -56 c-3 -5 -12 -10 -18 -10 -7 0 -6 4 3
10 19 12 23 12 15 0z m-223 -63 c-7 -8 -9 -17 -5 -20 3 -4 1 -7 -6 -7 -8 0
-11 6 -7 17 4 9 -4 5 -18 -10 -14 -15 -29 -27 -33 -27 -4 0 0 7 11 15 11 8 15
19 10 27 -4 7 -4 10 1 6 4 -4 17 -1 28 7 24 17 35 12 19 -8z m-49 -62 c-3 -9
-8 -14 -10 -11 -3 3 -2 9 2 15 9 16 15 13 8 -4z m227 -159 c0 -3 -4 -8 -10
-11 -5 -3 -10 -1 -10 4 0 6 5 11 10 11 6 0 10 -2 10 -4z"/>
<path d="M485 2510 c-16 -7 -17 -9 -3 -9 9 -1 20 4 23 9 7 11 7 11 -20 0z"/>
<path d="M2121 2494 c0 -11 3 -14 6 -6 3 7 2 16 -1 19 -3 4 -6 -2 -5 -13z"/>
<path d="M1716 2491 c-3 -5 1 -11 9 -14 9 -4 12 -1 8 9 -6 16 -10 17 -17 5z"/>
<path d="M437 2479 c7 -9 9 -20 5 -25 -4 -4 1 -2 11 5 9 7 17 16 17 19 0 3 -3
2 -7 -1 -3 -4 -13 -1 -22 6 -14 10 -14 10 -4 -4z"/>
<path d="M1365 2470 c-3 -6 1 -7 9 -4 18 7 21 14 7 14 -6 0 -13 -4 -16 -10z"/>
<path d="M2035 2471 c-6 -11 13 -26 22 -17 4 3 1 6 -6 6 -7 0 -9 5 -6 10 3 6
4 10 1 10 -3 0 -7 -4 -11 -9z"/>
<path d="M1315 2461 c-3 -5 -1 -12 5 -16 5 -3 10 1 10 9 0 18 -6 21 -15 7z"/>
<path d="M2552 2454 c3 -5 2 -18 -2 -29 -5 -13 -2 -27 9 -39 9 -11 11 -16 4
-12 -9 5 -12 -4 -11 -31 1 -82 -2 -114 -12 -108 -5 3 -10 1 -10 -4 0 -6 5 -11
11 -11 8 0 7 -5 -1 -15 -7 -9 -10 -18 -6 -22 3 -3 6 -1 6 6 0 9 4 8 15 -3 8
-8 15 -19 15 -25 0 -16 18 -23 26 -10 4 7 3 9 -3 6 -6 -4 -13 2 -16 13 -3 11
-1 23 4 26 5 3 9 -3 9 -12 0 -16 1 -16 15 2 14 18 14 18 10 -3 -2 -13 0 -23 6
-23 5 0 9 7 9 16 0 10 5 14 16 10 8 -3 13 -2 10 3 -3 5 1 12 10 15 12 5 15 2
10 -11 -5 -13 -4 -15 3 -8 6 6 12 23 13 37 1 15 6 24 10 22 5 -3 6 -9 3 -14
-3 -5 -1 -12 5 -15 6 -4 9 -1 8 7 -2 8 6 13 19 12 17 0 20 4 18 28 -2 15 0 30
5 33 6 3 7 0 4 -8 -5 -15 30 -17 43 -2 5 4 2 5 -5 1 -9 -6 -11 -1 -8 18 3 15
-1 31 -9 38 -35 32 -45 38 -45 30 0 -6 11 -17 23 -25 21 -14 36 -54 15 -41 -4
3 -8 12 -8 20 0 8 -4 14 -10 14 -5 0 -10 -5 -10 -12 0 -28 -16 10 -19 46 -1 5
-8 3 -16 -4 -12 -10 -16 -9 -21 4 -3 9 -11 13 -18 9 -6 -3 -8 -3 -4 2 8 9 -15
35 -31 35 -6 0 -11 -5 -11 -12 0 -6 -6 -3 -14 8 -11 15 -12 22 -3 34 7 8 -3 3
-22 -10 -27 -18 -33 -20 -28 -7 3 9 1 19 -5 23 -6 4 -9 3 -6 -2z m36 -44 c-7
-10 -14 -17 -17 -15 -4 4 18 35 25 35 2 0 -1 -9 -8 -20z m156 -148 c2 -4 -5
-9 -17 -9 -17 -2 -19 0 -7 7 18 12 18 12 24 2z m-177 -42 c1 -11 -2 -20 -7
-20 -6 0 -7 17 -1 38 3 8 7 -1 8 -18z m87 -12 c-3 -4 -9 -8 -15 -8 -5 0 -9 4
-9 8 0 5 7 9 15 9 8 0 12 -4 9 -9z"/>
<path d="M377 2437 c-9 -23 8 -30 24 -10 8 9 9 14 2 10 -6 -4 -13 -2 -15 5 -3
8 -7 6 -11 -5z"/>
<path d="M2620 2430 c0 -5 7 -7 15 -4 8 4 15 8 15 10 0 2 -7 4 -15 4 -8 0 -15
-4 -15 -10z"/>
<path d="M1823 2413 c0 -9 4 -10 14 -2 7 6 13 12 13 14 0 1 -6 2 -13 2 -8 0
-14 -6 -14 -14z"/>
<path d="M2691 2410 c-2 -28 13 -39 29 -22 13 14 12 15 -2 9 -11 -4 -18 0 -21
11 -4 13 -5 13 -6 2z"/>
<path d="M2530 2375 c-7 -9 -8 -15 -2 -15 5 0 12 7 16 15 3 8 4 15 2 15 -2 0
-9 -7 -16 -15z"/>
<path d="M1984 2352 c3 -5 0 -13 -6 -15 -9 -4 -10 -6 -1 -6 17 -1 25 16 12 25
-7 4 -9 3 -5 -4z"/>
<path d="M200 2335 c12 -14 7 -19 -13 -16 -5 1 -6 -3 -2 -9 5 -8 11 -7 21 1
11 9 11 15 3 25 -6 8 -14 14 -16 14 -3 0 0 -7 7 -15z"/>
<path d="M2530 2335 c-7 -9 -8 -15 -2 -15 5 0 12 7 16 15 3 8 4 15 2 15 -2 0
-9 -7 -16 -15z"/>
<path d="M2530 2295 c-7 -9 -8 -15 -2 -15 5 0 12 7 16 15 3 8 4 15 2 15 -2 0
-9 -7 -16 -15z"/>
<path d="M2179 2288 c0 -2 -2 -11 -4 -21 -3 -15 -1 -16 11 -6 7 6 11 15 8 20
-5 9 -13 12 -15 7z"/>
<path d="M2275 2210 c-3 -5 -1 -10 4 -10 6 0 11 5 11 10 0 6 -2 10 -4 10 -3 0
-8 -4 -11 -10z"/>
<path d="M850 2169 c0 -5 5 -7 10 -4 6 3 10 8 10 11 0 2 -4 4 -10 4 -5 0 -10
-5 -10 -11z"/>
<path d="M2875 2161 c-3 -5 -2 -12 3 -15 5 -3 9 1 9 9 0 17 -3 19 -12 6z"/>
<path d="M2415 2150 c-3 -6 1 -7 9 -4 18 7 21 14 7 14 -6 0 -13 -4 -16 -10z"/>
<path d="M2844 2141 c14 -5 16 -10 8 -15 -7 -4 -18 -4 -24 0 -8 5 -7 0 2 -11
15 -19 15 -19 -15 -1 -30 19 -30 19 -12 -1 21 -24 23 -40 2 -19 -18 18 -45 11
-45 -13 1 -14 3 -13 15 3 8 11 15 15 15 10 0 -16 -46 -55 -61 -52 -8 2 -13 -3
-11 -10 1 -6 -4 -11 -10 -10 -7 2 -13 -6 -13 -17 -1 -22 25 -46 39 -38 5 4 6
1 2 -6 -6 -9 -11 -9 -24 1 -10 8 -13 8 -9 1 4 -6 1 -13 -5 -16 -7 -3 5 -4 26
-3 24 0 41 -4 44 -12 2 -6 -5 -12 -15 -13 -11 0 -13 -3 -5 -6 7 -3 19 1 28 7
12 11 13 10 8 -6 -6 -16 -5 -17 7 -6 16 15 29 16 29 1 0 -5 -6 -7 -12 -3 -7 4
-2 -4 10 -19 22 -23 25 -24 42 -9 11 8 17 19 14 24 -3 4 3 5 12 1 13 -5 15 -3
9 7 -5 9 -4 11 4 6 6 -4 9 -12 6 -17 -3 -5 2 -6 11 -2 13 5 15 3 9 -7 -5 -9
-4 -11 3 -6 16 10 16 12 -15 41 -15 14 -24 26 -20 26 4 1 12 3 17 4 6 1 14 3
19 4 5 0 11 8 15 16 3 8 2 14 -2 14 -18 -3 -32 2 -32 11 0 5 8 7 18 4 14 -5
14 -3 -3 11 -20 17 -20 17 3 10 13 -4 22 -2 22 5 0 6 -4 9 -9 6 -4 -3 -17 1
-27 9 -16 13 -17 14 -1 9 10 -4 17 -1 17 6 0 6 5 8 11 4 6 -3 4 4 -4 17 -9 13
-17 29 -17 34 -1 6 -6 17 -12 25 -8 13 -9 12 -4 -2 6 -20 -31 -21 -38 -1 -3 7
-13 13 -23 12 -16 0 -16 -1 1 -8z m21 -31 c3 -5 1 -10 -4 -10 -6 0 -11 5 -11
10 0 6 2 10 4 10 3 0 8 -4 11 -10z m51 -7 c-2 -10 2 -22 8 -26 7 -6 6 -7 -4
-4 -14 3 -21 23 -13 40 7 13 11 8 9 -10z m-73 -200 c-5 -12 -3 -14 8 -8 11 6
12 5 2 -5 -7 -8 -16 -11 -19 -7 -7 6 2 37 10 37 3 0 2 -7 -1 -17z"/>
<path d="M105 2110 c-3 -6 1 -7 9 -4 18 7 21 14 7 14 -6 0 -13 -4 -16 -10z"/>
<path d="M2717 2067 c4 -6 0 -8 -10 -4 -11 4 -14 2 -10 -9 3 -8 1 -14 -5 -12
-9 3 -12 -1 -12 -19 0 -3 9 2 21 13 11 10 27 19 35 19 22 0 17 20 -6 21 -11 1
-17 -3 -13 -9z"/>
<path d="M616 2037 c3 -10 9 -15 12 -12 3 3 0 11 -7 18 -10 9 -11 8 -5 -6z"/>
<path d="M570 2005 c-11 -13 -10 -14 4 -9 9 3 16 10 16 15 0 13 -6 11 -20 -6z"/>
<path d="M1370 2005 c-7 -8 -17 -12 -24 -8 -6 3 -8 3 -4 -2 4 -4 3 -14 -3 -21
-7 -8 -6 -14 2 -20 7 -4 9 -3 5 4 -3 6 -1 14 6 19 15 9 43 43 35 43 -2 0 -10
-7 -17 -15z"/>
<path d="M2662 2010 c10 -6 15 -19 13 -30 -2 -11 0 -20 6 -20 10 0 8 28 -4 48
-5 6 -14 12 -20 12 -7 0 -4 -5 5 -10z"/>
<path d="M1384 1988 c-5 -7 -3 -8 5 -4 8 5 14 0 18 -13 4 -17 8 -19 19 -10 11
9 19 8 37 -7 12 -10 19 -15 15 -10 -4 4 -3 19 3 33 6 16 6 22 -1 18 -6 -3 -10
-13 -10 -21 0 -8 -5 -12 -10 -9 -6 4 -8 10 -5 14 2 5 -7 6 -20 3 -15 -2 -25 0
-25 7 0 14 -17 14 -26 -1z"/>
<path d="M2366 1968 c-6 -21 -7 -22 -19 -6 -14 17 -40 19 -54 3 -4 -4 -2 -5 5
-1 7 4 12 2 12 -6 0 -10 3 -9 11 2 9 13 10 13 6 0 -2 -8 -13 -15 -24 -15 -12
0 -25 -4 -29 -8 -5 -4 -1 -5 9 -1 10 3 17 1 17 -5 0 -6 -6 -11 -12 -11 -7 -1
-3 -9 9 -19 19 -16 20 -20 7 -25 -8 -3 -13 -2 -10 2 3 5 -1 9 -9 9 -11 0 -12
-4 -4 -14 6 -7 8 -21 5 -30 -4 -12 1 -9 15 7 15 19 18 20 12 5 -5 -11 -8 -30
-8 -42 1 -12 -2 -20 -6 -17 -12 7 -11 -3 2 -28 8 -15 8 -19 0 -14 -16 10 -13
-6 6 -34 l16 -25 -28 25 -28 25 17 -27 c18 -28 14 -74 -6 -62 -7 4 -8 2 -4 -5
6 -9 11 -9 22 0 8 6 17 9 21 5 3 -3 1 -6 -6 -6 -7 0 -9 -5 -5 -12 4 -6 3 -8
-2 -5 -6 3 -16 2 -24 -4 -12 -7 -10 -9 8 -9 13 0 21 -4 18 -9 -4 -5 0 -12 6
-15 7 -3 0 -3 -17 -1 -26 4 -24 2 15 -17 25 -12 47 -22 50 -23 3 0 11 -4 18
-9 9 -5 12 -3 10 7 -3 16 -1 17 30 17 15 0 15 -2 2 -11 -13 -9 -13 -10 1 -6 9
3 23 0 30 -6 7 -7 6 -3 -4 9 -19 23 -22 44 -6 44 5 0 8 -4 5 -9 -3 -5 2 -15
12 -22 16 -13 16 -13 2 5 -14 18 -13 19 5 12 16 -6 18 -5 8 5 -7 7 -13 17 -13
21 0 4 6 7 13 5 6 -1 11 5 9 13 -2 10 6 6 24 -10 16 -14 23 -17 16 -8 -11 14
-10 18 10 29 14 8 18 14 10 17 -6 2 -12 8 -12 14 0 6 6 6 15 -2 12 -10 15 -10
15 1 0 8 5 6 13 -5 12 -16 14 -16 26 -2 7 9 10 23 7 32 -5 14 -4 15 9 4 8 -7
12 -17 9 -22 -4 -6 2 -6 13 1 11 6 24 7 28 3 3 -4 5 0 3 8 -2 8 3 14 10 12 8
-1 11 2 8 7 -4 5 -2 12 4 16 6 4 8 11 4 16 -3 5 -1 15 5 22 7 10 5 13 -9 14
-15 1 -18 -4 -15 -28 2 -19 0 -27 -7 -23 -7 5 -8 2 -3 -7 8 -12 6 -12 -8 0
-20 16 -22 22 -6 18 6 -1 14 4 17 12 3 9 0 11 -8 6 -9 -6 -9 -3 -1 13 6 11 16
22 23 25 7 2 0 4 -16 4 -15 0 -32 7 -37 14 -7 12 -9 12 -9 0 0 -8 -3 -11 -6
-8 -4 4 -1 13 6 22 15 18 0 20 -19 3 -11 -11 -12 -10 -6 1 6 11 4 13 -8 8 -11
-4 -17 -1 -17 8 0 8 -6 15 -12 15 -9 0 -8 4 2 11 12 8 11 9 -5 7 -11 -2 -19 2
-18 9 1 6 -5 10 -15 9 -9 -2 -15 -7 -12 -12 3 -5 8 -8 12 -7 12 4 17 -26 5
-33 -7 -4 -9 -4 -5 1 5 5 -1 15 -13 23 -11 8 -18 20 -15 28 3 7 -3 18 -14 24
-16 8 -18 8 -14 -5 3 -8 11 -12 17 -8 6 3 7 1 3 -6 -6 -8 -12 -9 -20 -2 -7 6
-16 8 -19 5 -4 -4 -4 4 -2 16 2 12 2 20 -1 17 -4 -3 -15 3 -27 13 -11 11 -23
18 -25 15 -3 -2 6 -13 19 -24 20 -17 22 -22 10 -33 -12 -11 -13 -10 -8 5 8 22
-21 36 -34 16 -6 -9 -7 -1 -3 24 6 41 0 50 -10 15z m-40 -50 c4 -7 3 -8 -4 -4
-7 4 -12 2 -12 -5 0 -7 -3 -10 -6 -6 -6 5 3 27 11 27 2 0 7 -5 11 -12z m328
-219 c-8 -13 -21 -11 -27 5 -4 10 0 12 14 9 10 -3 16 -9 13 -14z m-61 -14 c4
-8 3 -16 -1 -19 -4 -3 -9 4 -9 15 -2 23 3 25 10 4z"/>
<path d="M2910 1936 c4 -4 16 -4 26 2 16 9 14 10 -8 9 -15 -1 -23 -6 -18 -11z"/>
<path d="M1126 1892 c-3 -5 1 -9 9 -9 8 0 12 4 9 9 -3 4 -7 8 -9 8 -2 0 -6 -4
-9 -8z"/>
<path d="M108 1883 c7 -3 16 -2 19 1 4 3 -2 6 -13 5 -11 0 -14 -3 -6 -6z"/>
<path d="M2871 1876 c-14 -17 -1 -28 19 -16 7 4 20 6 29 2 21 -7 12 2 -15 16
-17 9 -24 8 -33 -2z"/>
<path d="M550 1849 c0 -5 5 -7 10 -4 6 3 10 8 10 11 0 2 -4 4 -10 4 -5 0 -10
-5 -10 -11z"/>
<path d="M2266 1808 c3 -4 11 -5 19 -1 21 7 19 12 -4 10 -11 0 -18 -5 -15 -9z"/>
<path d="M1810 1781 c-8 -6 -17 -8 -21 -5 -4 2 -10 1 -13 -4 -2 -4 6 -8 19 -8
14 0 27 6 29 13 6 15 5 16 -14 4z"/>
<path d="M110 1776 c0 -2 7 -9 15 -16 13 -11 14 -10 9 4 -5 14 -24 23 -24 12z"/>
<path d="M1866 1748 c3 -5 10 -6 15 -3 13 9 11 12 -6 12 -8 0 -12 -4 -9 -9z"/>
<path d="M850 1729 c0 -5 5 -7 10 -4 6 3 10 8 10 11 0 2 -4 4 -10 4 -5 0 -10
-5 -10 -11z"/>
<path d="M802 1693 c-10 -4 -9 -8 4 -17 15 -11 13 -13 -14 -11 -21 1 -29 -2
-25 -12 3 -7 10 -10 17 -5 6 4 18 7 26 8 53 4 53 4 40 18 -6 8 -19 12 -27 9
-11 -4 -14 -2 -9 5 8 13 7 13 -12 5z"/>
<path d="M2024 1644 c4 -24 20 -33 33 -19 9 10 6 15 -12 23 -18 9 -23 8 -21
-4z"/>
<path d="M2547 1642 c-11 -12 -13 -22 -6 -32 8 -12 9 -11 7 5 -2 14 2 20 14
19 10 -1 14 4 11 12 -7 18 -7 18 -26 -4z"/>
<path d="M2610 1648 c0 -6 3 -8 7 -5 3 4 13 1 22 -6 14 -11 14 -10 2 6 -15 20
-31 22 -31 5z"/>
<path d="M570 1641 c0 -6 4 -13 10 -16 6 -3 7 1 4 9 -7 18 -14 21 -14 7z"/>
<path d="M105 1630 c-3 -6 1 -7 9 -4 18 7 21 14 7 14 -6 0 -13 -4 -16 -10z"/>
<path d="M625 1610 c-3 -6 1 -7 9 -4 18 7 21 14 7 14 -6 0 -13 -4 -16 -10z"/>
<path d="M2485 1611 c-6 -11 13 -26 22 -17 4 3 1 6 -6 6 -7 0 -9 5 -6 10 3 6
4 10 1 10 -3 0 -7 -4 -11 -9z"/>
<path d="M2573 1604 c0 -7 7 -10 15 -6 11 4 13 2 7 -9 -8 -12 -6 -12 8 -1 9 8
22 10 28 6 8 -5 9 -3 5 5 -5 7 -14 10 -22 7 -8 -3 -14 -2 -14 3 0 4 -6 8 -13
8 -8 0 -14 -6 -14 -13z"/>
<path d="M690 1599 c0 -5 5 -7 10 -4 6 3 10 8 10 11 0 2 -4 4 -10 4 -5 0 -10
-5 -10 -11z"/>
<path d="M2230 1573 c0 -12 29 -27 47 -24 6 1 17 -7 25 -17 7 -11 15 -21 18
-22 9 -6 50 21 50 32 0 6 -3 8 -7 5 -3 -4 -11 -3 -17 2 -18 14 -53 19 -67 10
-8 -5 -20 -2 -31 8 -10 9 -18 11 -18 6z m81 -30 c13 -16 12 -17 -3 -4 -10 7
-18 15 -18 17 0 8 8 3 21 -13z m34 -2 c3 -5 2 -12 -3 -15 -5 -3 -9 1 -9 9 0
17 3 19 12 6z"/>
<path d="M2394 1525 c-4 -8 -11 -12 -17 -8 -6 3 -7 1 -3 -5 9 -15 33 -5 33 13
0 19 -6 19 -13 0z"/>
<path d="M2346 1502 c-3 -5 1 -9 9 -9 8 0 12 4 9 9 -3 4 -7 8 -9 8 -2 0 -6 -4
-9 -8z"/>
<path d="M108 1403 c7 -3 16 -2 19 1 4 3 -2 6 -13 5 -11 0 -14 -3 -6 -6z"/>
<path d="M2756 1388 c3 -5 10 -6 15 -3 13 9 11 12 -6 12 -8 0 -12 -4 -9 -9z"/>
<path d="M2658 1255 c9 -11 18 -21 18 -23 1 -2 1 7 1 20 -1 15 -8 24 -19 24
-16 0 -16 -1 0 -21z"/>
<path d="M105 1150 c-3 -6 1 -7 9 -4 18 7 21 14 7 14 -6 0 -13 -4 -16 -10z"/>
<path d="M100 926 c0 -2 7 -7 16 -10 8 -3 12 -2 9 4 -6 10 -25 14 -25 6z"/>
<path d="M175 760 c-3 -5 -1 -10 4 -10 6 0 11 5 11 10 0 6 -2 10 -4 10 -3 0
-8 -4 -11 -10z"/>
<path d="M204 745 c1 -8 8 -21 16 -28 11 -9 11 -8 0 7 -14 18 -13 19 3 13 23
-9 22 0 -2 13 -15 8 -19 7 -17 -5z"/>
<path d="M339 659 c-12 -8 -12 -9 1 -7 8 1 25 -3 37 -10 13 -7 24 -8 28 -3 11
19 -43 35 -66 20z"/>
<path d="M2179 545 c-1 -3 -2 -9 -3 -15 0 -5 -10 -15 -20 -23 -15 -11 -16 -16
-6 -22 9 -5 11 -4 6 3 -6 10 4 16 24 14 3 0 7 10 8 24 1 20 -5 35 -9 19z"/>
<path d="M2216 523 c-6 -14 -5 -15 5 -6 7 7 10 15 7 18 -3 3 -9 -2 -12 -12z"/>
<path d="M586 516 c10 -8 21 -12 24 -10 5 6 -21 24 -34 24 -6 0 -1 -6 10 -14z"/>
<path d="M816 392 c-2 -4 -1 -14 3 -21 6 -9 11 -10 15 -2 4 6 2 11 -4 11 -6 0
-8 5 -5 10 3 6 4 10 1 10 -3 0 -7 -4 -10 -8z"/>
<path d="M850 380 c0 -5 5 -10 11 -10 5 0 7 5 4 10 -3 6 -8 10 -11 10 -2 0 -4
-4 -4 -10z"/>
<path d="M1880 360 c-13 -8 -12 -10 3 -10 9 0 17 5 17 10 0 12 -1 12 -20 0z"/>
<path d="M970 316 c0 -4 7 -14 15 -22 8 -9 15 -11 15 -6 0 5 -7 15 -15 22 -8
7 -15 9 -15 6z"/>
<path d="M1665 241 c3 -5 1 -12 -5 -16 -5 -3 -10 -12 -10 -18 0 -7 5 -4 11 6
6 10 15 14 22 10 7 -4 6 0 -2 10 -14 18 -26 23 -16 8z"/>
<path d="M1114 219 c-3 -6 -3 -13 0 -16 3 -4 6 -1 6 6 0 7 4 10 10 6 5 -3 6
-13 3 -22 -4 -11 -3 -14 5 -9 7 4 12 13 12 21 0 16 -27 27 -36 14z"/>
<path d="M1297 113 c-2 -4 5 -17 16 -28 l20 -20 -13 25 c-16 32 -17 33 -23 23z"/>
<path d="M1346 91 c-8 -13 3 -19 31 -17 25 2 41 12 21 13 -7 0 -20 4 -29 7
-10 4 -20 3 -23 -3z"/>
</g>
</svg>
